<svg width="140" height="141" viewBox="0 0 140 141" fill="none" xmlns="http://www.w3.org/2000/svg">
<g id="Group 76">
<g id="Group">
<g id="Group_2">
<g id="Group_3">
<path id="Vector" d="M27.4114 138.541C19.395 132.991 13.7001 124.189 11.1428 114.885C9.98805 110.575 9.35932 106.21 9.69483 101.745C9.96988 97.5526 11.3845 93.2421 13.0198 89.3519C13.8027 87.4989 14.77 85.7155 15.7463 84.0197C17.028 81.8494 18.3096 79.679 19.7847 77.6659C22.6654 73.8239 26.9002 71.0823 31.2167 69.1296C35.7871 67.062 40.7112 65.8438 45.5929 65.073C51.0006 64.2477 56.7166 63.8336 62.1727 64.3323C67.8132 64.9005 73.3539 67.0739 77.0084 71.5687C80.1612 75.4953 81.0559 80.7186 78.9672 85.3646C77.0962 89.545 73.2664 92.7764 69.098 94.448C64.5004 96.2526 59.5098 95.9715 54.9696 94.0491C45.4237 89.9865 38.9611 79.7575 36.2798 70.1119C34.8773 65.1183 34.315 59.6834 35.376 54.5236C36.576 48.995 39.638 44.3369 44.0542 40.7791C48.803 37.0097 54.4676 34.3859 59.8783 31.877C65.7092 29.1474 71.6549 26.6717 77.7337 24.6253C89.7945 20.4538 102.333 17.4734 114.998 15.7201C118.145 15.306 121.213 14.9886 124.378 14.7498C127.192 14.5472 127.645 18.9302 124.831 19.1328C101.109 21.0553 77.8667 27.6239 56.647 38.3245C52.0162 40.6642 47.0528 43.2154 43.6553 47.1994C40.6507 50.6998 39.2542 55.1855 39.1907 59.7106C39.1545 64.4986 40.2669 69.2565 42.1319 73.582C43.8912 77.7413 46.3517 81.8281 49.6072 85.0352C52.766 88.1638 56.6503 90.5971 61.1421 91.1955C64.8268 91.7003 68.7503 90.2312 71.6975 87.8886C74.4694 85.5641 76.2558 82.2784 75.7178 78.7901C75.0014 74.4343 71.0536 71.3874 67.0938 69.9365C62.0277 68.0684 56.1454 68.5884 50.8676 68.9572C46.5632 69.3139 42.2165 70.1179 38.0028 71.3512C33.8858 72.6631 29.8142 74.4133 26.3773 77.161C23.1067 79.8029 21.024 83.6509 18.9142 87.2359C16.9615 90.6275 15.6587 94.3062 14.7247 98.1239C13.7634 101.679 13.836 104.949 14.3046 108.622C15.4109 116.747 19.271 124.942 25.114 130.894C26.698 132.502 28.3424 133.838 30.1621 135.156C31.1203 135.854 31.1868 137.353 30.4795 138.224C29.6935 139.191 28.3696 139.239 27.4114 138.541Z" fill="#FBD52B"/>
</g>
</g>
<g id="Group_4">
<g id="Group_5">
<path id="Vector_2" d="M88.9813 44.2822C98.3186 38.6206 107.136 32.2153 115.539 25.2327C117.577 23.5158 119.692 21.7021 121.633 19.9066C122.359 19.2114 123.347 18.4889 123.87 17.5488C124.245 16.8899 124.051 16.7327 123.392 16.3579C122.443 15.7473 121.424 15.3211 120.406 14.8949C119.194 14.3115 117.903 13.8248 116.612 13.3382C114.206 12.3467 111.73 11.5397 109.176 10.8293C103.524 9.28775 97.6625 8.29929 91.8649 7.92449C90.7072 7.86707 89.8517 6.44942 90.0935 5.36123C90.3172 4.09771 91.4024 3.45385 92.6568 3.58987C98.3668 3.97374 104.044 4.89263 109.608 6.44328C112.435 7.21408 115.27 8.07253 117.948 9.12443C120.442 10.1068 123.111 11.0711 125.378 12.4313C127.926 13.9396 129.259 16.5483 127.954 19.3413C126.708 21.8623 124.066 23.7304 122.038 25.535C117.571 29.4525 112.909 33.2128 108.133 36.7192C102.78 40.6398 97.3211 44.394 91.6504 47.8158C90.6529 48.4506 89.3108 48.3237 88.5884 47.3352C87.7874 46.4435 87.9748 44.8293 88.9813 44.2822Z" fill="#FBD52B"/>
</g>
</g>
</g>
</g>
</svg>
