<svg width="32" height="32" viewBox="0 0 32 32" fill="none" xmlns="http://www.w3.org/2000/svg">
    <path
        d="M9.33333 24C8.93333 24 8.66667 23.8667 8.4 23.6C7.86667 23.0667 7.86667 22.2667 8.4 21.7333L21.7333 8.4C22.2667 7.86667 23.0667 7.86667 23.6 8.4C24.1333 8.93333 24.1333 9.73333 23.6 10.2667L10.2667 23.6C10 23.8667 9.73333 24 9.33333 24Z"
        fill="#111013" />
    <path
        d="M22.6667 22.6667C21.8667 22.6667 21.3334 22.1333 21.3334 21.3333V10.6667H10.6667C9.86671 10.6667 9.33337 10.1333 9.33337 9.33333C9.33337 8.53333 9.86671 8 10.6667 8H22.6667C23.4667 8 24 8.53333 24 9.33333V21.3333C24 22.1333 23.4667 22.6667 22.6667 22.6667Z"
        fill="#111013" />
</svg>