<svg width="32" height="32" viewBox="0 0 32 32" fill="none" xmlns="http://www.w3.org/2000/svg">
<path id="Subtract" fill-rule="evenodd" clip-rule="evenodd" d="M31.9176 16.0275C23.1114 16.0275 15.9725 8.88864 15.9725 0.0824003L15.9727 0H15.9723L15.9725 0.0824003C15.9725 8.88864 8.83365 16.0275 0.0274124 16.0275C8.83365 16.0275 15.9725 23.1664 15.9725 31.9726C15.9725 23.1664 23.1114 16.0275 31.9176 16.0275L32 16.0277V16.0273L31.9176 16.0275ZM15.9725 32H15.9725L15.9725 31.9726C15.9725 31.9818 15.9725 31.9909 15.9725 32ZM0 16.0275C0.0091362 16.0275 0.0182724 16.0275 0.0274124 16.0275L0 16.0275V16.0275Z" fill="#FF007F"/>
</svg>
