<svg width="55" height="40" viewBox="0 0 55 40" fill="none" xmlns="http://www.w3.org/2000/svg">
<path d="M30.3448 11.7241C30.3448 4.82759 35.0345 2.04991e-06 41.931 2.65283e-06C49.5172 3.31604e-06 54.4828 6.06897 54.4828 15.1724C54.4828 28.6897 45.931 38.6207 33.2414 40V32.4138C40 31.1724 44.5517 27.4483 44.5517 21.7931C43.4483 22.3448 42.069 22.6207 40.5517 22.6207C34.7586 22.6207 30.3448 18.4828 30.3448 11.7241ZM0 11.7241C6.02916e-07 4.82758 4.68966 -6.02916e-07 11.5862 0C19.1724 6.63207e-07 24.1379 6.06897 24.1379 15.1724C24.1379 28.6897 15.5862 38.6207 2.89655 40L2.89655 32.4138C9.65517 31.1724 14.2069 27.4483 14.2069 21.7931C13.1034 22.3448 11.7241 22.6207 10.2069 22.6207C4.41379 22.6207 -5.90858e-07 18.4828 0 11.7241Z" fill="white"/>
</svg>
