<svg xmlns="http://www.w3.org/2000/svg" viewBox="0 0 575.38 295.47"><defs><style>.cls-1{fill:#e2d3b0;fill-rule:evenodd;}</style></defs><g id="Layer_2" data-name="Layer 2"><g id="Layer_1-2" data-name="Layer 1"><path class="cls-1" d="M0,10.74v.92l13.66,7.72c.32.19.62.42,1.12.76l-1.39.8L0,28.48v.94q6.77-4,13.51-8L15,20.57c0,.65.1,1.07.09,1.49-.08,7.56-.2,15.11-.23,22.67a2.24,2.24,0,0,1-1.27,2.19q-6.82,4-13.62,8v.57q7-3.91,14-7.86a2.23,2.23,0,0,1,2.54,0c6.6,3.78,13.24,7.51,19.87,11.26.33.18.64.41,1.2.77l-3,1.73c-6,3.37-12,6.72-18,10.13a2.21,2.21,0,0,1-2.53.05c-4.67-2.68-9.35-5.32-14-8v.68c5.67,3.25,12.84,7.52,14.76,8.89.07,8.36.15,16.8.23,25.25-.75-.14-8.73-4.7-15-8.43v.82l13.26,7.5c.41.23.8.5,1.36.85-.5.34-.84.59-1.2.8L0,107.47v.76l13.29-7.84c.45-.27.9-.52,1.53-.88,0,.63.1,1,.09,1.46-.08,7.61-.18,15.21-.24,22.82a1.9,1.9,0,0,1-1,1.91q-6.85,4-13.69,8v.75q7-3.92,14-7.86a2,2,0,0,1,2.28,0c6.64,3.81,13.31,7.56,20,11.33.33.18.63.4,1.08.69-.44.3-.72.53-1,.71-6.72,3.78-13.44,7.54-20.16,11.34a1.78,1.78,0,0,1-2,0q-7-4-14.1-8v.72c4.56,2.7,9.11,5.41,13.67,8.09a1.56,1.56,0,0,1,.91,1.49c.05,7.91.13,15.82.2,23.73,0,.19,0,.38-.09.91L0,168.92v.9l13.47,7.63c.28.16.52.39.9.66-.49.31-.83.56-1.2.76L0,186.29v.87l9.65-5.66,5.06-2.92c0,.68.06,1.14.06,1.62-.09,7.51-.2,15-.24,22.54a2.26,2.26,0,0,1-1.26,2.2c-4.44,2.58-8.85,5.19-13.27,7.8v.57q7-3.93,14-7.87a1.57,1.57,0,0,1,1.75-.08q10.37,5.89,20.75,11.76c.16.09.29.23.64.5l-1.44.83c-6.51,3.66-13,7.3-19.5,11a2.33,2.33,0,0,1-2.67,0Q6.78,225.56,0,221.75v.72l13.31,7.89A1.75,1.75,0,0,1,14.44,232c0,7.85.12,15.71.19,23.56,0,.24,0,.48-.06.87a6.34,6.34,0,0,1-.94-.33L0,248.05V249l13.05,7.38c.37.21.7.47,1.22.81l-1.4.81L0,265.2V266l13.65-8a6.28,6.28,0,0,1,.86-.37c0,.59.05,1,.05,1.36-.08,7.66-.18,15.32-.25,23a1.78,1.78,0,0,1-.93,1.78Q6.68,287.6,0,291.55v.69l13.72-7.73a1.69,1.69,0,0,1,1.89-.11q9.77,5.57,19.56,11.07h1.31c-4-2-19.11-10.92-21.23-12.48-.07-8.37-.15-16.81-.22-25.27,1.16.29,19.79,11.19,22.11,12.91q.12,12.35.23,24.84h.51c0-.35,0-.65,0-1,.08-7.51.2-15,.23-22.54a2.3,2.3,0,0,1,1.36-2.29c6.5-3.78,13-7.62,19.45-11.43.36-.22.75-.39,1.3-.67,0,.63.07,1.1.07,1.56-.08,7.52-.19,15-.24,22.55a2.23,2.23,0,0,1-1.23,2.21c-6.5,3.79-13,7.63-19.44,11.46l-.18.1h.66q9.74-5.45,19.46-10.93a1.88,1.88,0,0,1,2.14-.08c6.47,3.69,13,7.34,19.43,11h1L61,283.1c-.08-8.45-.16-16.87-.23-25.33,1.15.3,20.23,11.49,22.06,12.9.07,8.14.15,16.33.22,24.8h.53a4.62,4.62,0,0,1-.06-.63c.08-7.75.18-15.5.26-23.26a1.55,1.55,0,0,1,.79-1.56l12.84-7.57h0l5.69-3.35c.62-.37,1.24-.74,1.87-1.1a5.75,5.75,0,0,1,.56-.29l.18-.06a6.36,6.36,0,0,1,.12,1.1c-.08,7.7-.18,15.4-.25,23.11a1.79,1.79,0,0,1-.94,1.78c-2.46,1.43-4.92,2.88-7.37,4.33v.08L84.6,295.47h1l12.36-7c2.37-1.32,4.74-2.64,7.1-4l.4-.19.24-.08h.06a1.51,1.51,0,0,1,.67,0,1.86,1.86,0,0,1,.49.21q9.7,5.54,19.45,11h1.12L107.46,283.6a1.44,1.44,0,0,1-.86-1.37q-.07-12-.19-24a5.37,5.37,0,0,1,.09-.59c.45.22.81.39,1.13.58l19.65,11.63a1.78,1.78,0,0,1,1.12,1.67c0,7.85.12,15.71.19,23.57,0,.12,0,.25,0,.39h.69a4,4,0,0,1,0-.6c.08-7.75.18-15.5.25-23.26a1.57,1.57,0,0,1,.8-1.56q10.32-6.06,20.63-12.15a2.27,2.27,0,0,1,.34-.15l.18-.06c0,.49.07.86.06,1.22-.08,7.66-.18,15.31-.26,23a1.77,1.77,0,0,1-.91,1.8c-6.7,3.9-13.36,7.86-20,11.79h.88q9.66-5.43,19.32-10.88a2.38,2.38,0,0,1,1.85-.28,3.43,3.43,0,0,1,.41.18c6.44,3.69,12.92,7.33,19.38,11h1.49c-3.61-1.78-17.75-10-21.28-12.47q-.1-12.57-.23-25.14c.68.24,3,1.49,6,3.16L172,269.28c.8.5,1.49,1,2,1.31.08,8.23.16,16.54.23,24.88h.68a3.88,3.88,0,0,1-.06-.67c.08-7.71.18-15.42.25-23.13a2,2,0,0,1,.43-1.4l.09-.08.26-.2c.09-.06.18-.13.29-.19l16.8-9.86c1-.57,1.92-1.17,2.89-1.73.32-.19.68-.35,1.12-.57l.08,0c0,.56,0,.93,0,1.3-.08,7.66-.18,15.32-.25,23a1.78,1.78,0,0,1-.93,1.78c-6.69,3.91-13.36,7.86-20,11.79h1.06l19.47-11a4.1,4.1,0,0,1,.42-.21l.11,0,.22-.05a1.4,1.4,0,0,1,.5,0,2,2,0,0,1,.49.2q9.76,5.57,19.56,11.07h1.46c-1.65-.84-5.24-2.88-9-5.08h0l-6-3.55c-2.54-1.52-4.67-2.83-5.72-3.54a1.88,1.88,0,0,1-.46-.91q-.1-12.08-.22-24.29c0-.1,0-.2,0-.32.95.41,4.85,2.61,9.12,5.09l3.29,1.95v0c4.41,2.6,8.52,5.09,9.53,5.84q.12,12.35.23,24.84h.66c0-.35,0-.65,0-1,.08-7.51.2-15,.23-22.54a2.3,2.3,0,0,1,1.36-2.29c6.5-3.78,13-7.62,19.45-11.43.32-.2.68-.36,1.15-.6,0,.59.07,1,.07,1.49-.08,7.52-.19,15-.24,22.55a2.22,2.22,0,0,1-1.23,2.21c-6.5,3.79-13,7.63-19.44,11.46l-.18.1h.81Q232.25,290,242,284.54a2.48,2.48,0,0,1,1-.36,1.81,1.81,0,0,1,1,.28c6.47,3.69,13,7.34,19.43,11h1.12L243.63,283.1c-.08-8.43-.15-16.84-.23-25.28,2.1.9,20.14,11.48,21.92,12.85.07,8.14.15,16.33.22,24.8h.68a4.62,4.62,0,0,1-.06-.63c.08-7.75.18-15.5.25-23.26a1.57,1.57,0,0,1,.79-1.56q10.35-6.07,20.68-12.19a3.66,3.66,0,0,1,.47-.18h0a11.48,11.48,0,0,1,.07,1.21c-.08,7.65-.19,15.31-.25,23a1.88,1.88,0,0,1-1,1.87c-6.68,3.9-13.33,7.84-20,11.76h1.18Q278,290,287.73,284.56a2.23,2.23,0,0,1,1-.33,1.8,1.8,0,0,1,.88.25c6.45,3.69,12.93,7.33,19.4,11h1.12q-10-5.89-19.93-11.79a1.54,1.54,0,0,1-.95-1.46c-.05-8-.13-15.91-.19-23.86a4.64,4.64,0,0,1,.08-.74c.53.28.92.48,1.3.7,6.46,3.83,12.92,7.68,19.4,11.48a2.09,2.09,0,0,1,1.21,2.06c0,7.56.12,15.12.18,22.68,0,.29,0,.59,0,.93h.7a4.3,4.3,0,0,1,0-.61c.08-7.71.18-15.41.25-23.11a1.7,1.7,0,0,1,.82-1.7q10.31-6,20.56-12.1a3.25,3.25,0,0,1,.57-.25c0,.48.07.81.06,1.12-.08,7.71-.19,15.41-.25,23.12a1.78,1.78,0,0,1-.95,1.77c-6.67,3.9-13.32,7.84-20,11.76h.88c6.39-3.59,12.79-7.16,19.16-10.79a2.9,2.9,0,0,1,1.43-.45,2.87,2.87,0,0,1,1.22.42c6.34,3.65,12.72,7.22,19.09,10.82h1.46C352.4,293.58,338,285.13,335,283c-.07-8.2-.15-16.5-.23-25.17a34.1,34.1,0,0,1,3.5,1.79l18.13,10.74.29.19q.11,12.44.22,24.91h.68a1.54,1.54,0,0,1-.07-.42c.08-7.85.19-15.71.25-23.57a1.8,1.8,0,0,1,1.12-1.68q8.42-4.92,16.81-9.86c1-.57,1.91-1.17,2.88-1.73.33-.19.69-.36,1.13-.57,0,.55.08.95.08,1.35q-.14,11.43-.25,22.84a2.5,2.5,0,0,1-.24,1.25l0,0a1.18,1.18,0,0,1-.25.3,1.79,1.79,0,0,1-.3.22l-.05,0q-10.06,5.88-20.08,11.81h1.06q9.75-5.49,19.51-11a2.15,2.15,0,0,1,.88-.3,1.42,1.42,0,0,1,.73.2l12,6.79v-.07l7.71,4.36h1.31c-1.63-.83-5.15-2.83-8.87-5v-.09q-5.26-3.12-10.55-6.22c-.27-.17-.52-.32-.74-.47a2.16,2.16,0,0,1-1-2c0-7.52-.12-15-.18-22.55,0-.42,0-.83.05-1.35.59.25,2.28,1.17,4.48,2.42l7.79,4.62v-.09l.15.09v0c4.41,2.6,8.52,5.09,9.53,5.84q.12,12.35.23,24.84h.51c0-.35,0-.65,0-1,.08-7.51.2-15,.23-22.54a2.3,2.3,0,0,1,1.36-2.29c6.5-3.78,13-7.62,19.45-11.43.36-.22.75-.39,1.3-.67,0,.63.07,1.1.07,1.56-.09,7.52-.19,15-.24,22.55a2.23,2.23,0,0,1-1.23,2.21c-6.5,3.79-13,7.63-19.44,11.46l-.18.1h.66q9.74-5.45,19.46-10.93a1.88,1.88,0,0,1,2.14-.08c6.46,3.69,13,7.34,19.43,11h1L426.17,283.1c-.08-8.45-.15-16.87-.23-25.33,1.15.3,20.23,11.49,22.07,12.9.07,8.14.14,16.33.22,24.8h.53a4.62,4.62,0,0,1-.06-.63c.08-7.75.18-15.5.25-23.26a1.57,1.57,0,0,1,.79-1.56q10.36-6.07,20.68-12.19c.12-.07.27-.1.62-.24,0,.53.07.9.07,1.28-.09,7.65-.19,15.31-.25,23a1.88,1.88,0,0,1-1,1.87c-6.68,3.9-13.34,7.84-20,11.76h1q9.7-5.45,19.41-10.91a1.81,1.81,0,0,1,2-.08c6.45,3.69,12.93,7.33,19.4,11h1q-10-5.89-19.93-11.79a1.54,1.54,0,0,1-1-1.46c0-8-.13-15.91-.19-23.86a6.64,6.64,0,0,1,.09-.82c.6.33,1,.54,1.43.78,6.47,3.83,12.92,7.68,19.41,11.48a2.1,2.1,0,0,1,1.21,2.06c0,7.56.11,15.12.18,22.68,0,.29,0,.59,0,.93h.56a4.3,4.3,0,0,1-.05-.61c.08-7.71.18-15.41.26-23.11a1.66,1.66,0,0,1,.82-1.7Q505.76,264,516,258a6,6,0,0,1,.72-.31c0,.52.06.85.06,1.18-.09,7.71-.19,15.41-.25,23.12a1.78,1.78,0,0,1-.95,1.77c-6.67,3.9-13.32,7.84-20,11.76h.73c6.39-3.59,12.79-7.16,19.16-10.79a2.42,2.42,0,0,1,2.79,0c6.35,3.65,12.73,7.22,19.1,10.82h1.31c-3.77-1.89-18.19-10.34-21.22-12.46-.08-8.32-.15-16.74-.23-25.55l22.06,13.08q.12,12.45.23,24.93h.53a1.54,1.54,0,0,1-.07-.42c.08-7.85.19-15.71.25-23.57a1.79,1.79,0,0,1,1.13-1.68l16.8-9.86c1-.57,1.91-1.17,2.89-1.73.36-.22.75-.38,1.27-.64,0,.59.08,1,.08,1.42q-.13,11.43-.26,22.84a1.76,1.76,0,0,1-.85,1.83q-10.07,5.88-20.08,11.81h.91q9.75-5.49,19.51-11a1.59,1.59,0,0,1,1.76-.1q6,3.41,12,6.79v-.79c-3.68-2.18-7.36-4.36-11-6.51a2.22,2.22,0,0,1-1.24-2.2c0-7.52-.12-15-.18-22.55,0-.47,0-.94.07-1.56.53.27.91.44,1.28.65l11.12,6.6V264L564,257.51a6.07,6.07,0,0,1-.62-.44,8,8,0,0,1,.89-.69l11.14-6.27v-.71l-11.75,6.91a4,4,0,0,1-.6.23c0-.54-.07-.91-.06-1.29.08-7.66.18-15.31.25-23a1.77,1.77,0,0,1,.93-1.78c3.75-2.19,7.49-4.4,11.23-6.6v-.83q-5.67,3.18-11.31,6.4a2.35,2.35,0,0,1-2.67,0c-6.51-3.75-13.06-7.42-19.6-11.12-.37-.21-.72-.46-1.23-.78.37-.26.61-.47.88-.62q10.2-5.74,20.41-11.48a1.67,1.67,0,0,1,1.88,0q5.82,3.31,11.64,6.59v-.78l-12-7.13c-.07-8.43-.15-16.86-.23-25.65l12.28,7.28v-.85l-10.9-6.16c-.29-.16-.54-.37-1.05-.72l1.35-.77,10.6-6v-.81l-10.55,6.22-1.63.94c0-.69-.09-1.11-.08-1.54.08-7.56.19-15.12.23-22.69a2.26,2.26,0,0,1,1.27-2.2q5.39-3.14,10.76-6.31v-.65c-3.79,2.13-7.59,4.25-11.37,6.39a1.8,1.8,0,0,1-2,.08c-6.78-3.87-13.58-7.69-20.37-11.54-.25-.14-.47-.32-.84-.57.44-.3.77-.56,1.13-.77l20-11.25a1.79,1.79,0,0,1,2-.09c3.8,2.18,7.61,4.33,11.42,6.49v-.79l-10.92-6.46a1.75,1.75,0,0,1-1-1.73c0-7.71-.13-15.42-.19-23.13,0-.37,0-.74.08-1.28.56.28,1,.48,1.39.71l10.64,6.3v-.83l-10.47-5.92c-.38-.21-.73-.46-1.23-.79a10.15,10.15,0,0,1,.86-.62l10.84-6.09v-.69l-10.51,6.21c-.41.24-.83.47-1.4.81a11.81,11.81,0,0,1-.15-1.28c.08-7.72.18-15.43.25-23.14a1.8,1.8,0,0,1,.93-1.8l10.88-6.38v-.75c-3.74,2.1-7.48,4.19-11.21,6.3a1.78,1.78,0,0,1-2,0c-6.78-3.87-13.58-7.7-20.38-11.55a10,10,0,0,1-.89-.6c.51-.34.82-.57,1.16-.75,6.5-3.67,13-7.3,19.51-11a2.66,2.66,0,0,1,3.06,0c3.57,2.07,7.17,4.1,10.76,6.13v-.8l-11.69-6.93q-.12-12.6-.24-25.28c.71.14,6.36,3.3,11.93,6.57v-.69L564.71,20.7a9.44,9.44,0,0,1-.82-.56,8.35,8.35,0,0,1,.76-.56l10.73-6v-.84l-10.47,6.14c-.38.22-.76.43-1.26.73a5.71,5.71,0,0,1-.18-1.06q.09-9.27.2-18.53h-.84c.06,6.47.12,13,.18,19.73L541,6.66c0-2.22-.05-4.44-.07-6.66h-.82L540,5.46a1.88,1.88,0,0,1-1,1.88c-6.66,3.9-13.29,7.84-19.94,11.76-.28.17-.6.3-1,.51a3.54,3.54,0,0,1-.2-.85Q517.93,9.38,518,0h-.83c.06,6.48.12,13,.18,19.78L495.26,6.67,495.2,0h-.83l-.06,5.58a1.59,1.59,0,0,1-.79,1.57c-6.91,4-13.8,8.12-20.7,12.18a5.32,5.32,0,0,1-.61.21c0-.6-.06-1-.06-1.45q.11-9,.2-18.09h-.84c.06,6.49.12,13,.18,19.62-.66-.34-1.08-.54-1.48-.78-6.48-3.83-12.93-7.68-19.42-11.48a2.11,2.11,0,0,1-1.21-2.06c0-1.77,0-3.53,0-5.3h-.81l-.06,5.46a1.77,1.77,0,0,1-.94,1.78q-10.17,6-20.3,12c-.21.12-.44.21-.82.39,0-.51-.1-.92-.1-1.33L426.73,0h-.84q.06,9.21.16,18.42c0,.32-.05.65-.09,1.22-.6-.32-1-.51-1.36-.74-6.51-3.85-13-7.72-19.53-11.55a2,2,0,0,1-1.17-1.94c0-1.8,0-3.6,0-5.41h-.82L403,5.41a1.77,1.77,0,0,1-.94,1.79Q392.18,13,382.34,18.79l-.12.07-.54.31c-.16.09-.34.17-.6.29a4.67,4.67,0,0,1-.15-.93q.09-9.27.2-18.53h-1c.06,6.44.12,13,.18,19.64l-21.91-13c0-2.22-.05-4.44-.07-6.66h-1l-.06,5.46a1.87,1.87,0,0,1-1,1.88c-6.65,3.89-13.27,7.83-19.9,11.74-.26.15-.54.27-.91.45a2.74,2.74,0,0,1-.18-.77q.09-9.38.19-18.76h-1c.06,6.46.12,13,.18,19.69l-22-13L312.66,0h-1l-.06,5.58a1.9,1.9,0,0,1-.24,1,1.71,1.71,0,0,1-.2.27l-.12.09a2.21,2.21,0,0,1-.29.22q-10.22,6-20.39,12a5.36,5.36,0,0,1-.48.24l-.23.07c0-.57-.06-1-.06-1.4q.11-9,.2-18.09h-1c.06,6.4.12,12.8.18,19.34a1.34,1.34,0,0,0,0,.2c-.56-.29-1-.48-1.33-.7-6.47-3.83-12.92-7.68-19.41-11.48A2.11,2.11,0,0,1,267,5.3c0-1.77,0-3.53,0-5.3h-1L266,5.46a1.77,1.77,0,0,1-.94,1.78q-10.17,6-20.3,12c-.18.1-.39.19-.68.32,0-.47-.09-.87-.09-1.26L244.19,0h-1q.06,9.21.16,18.42c0,.31,0,.63-.08,1.14-.52-.27-.88-.45-1.22-.66-6.51-3.85-13-7.72-19.53-11.55a2,2,0,0,1-1.17-1.94l0-5.41h-1l-.06,5.41a1.77,1.77,0,0,1-.94,1.79c-6.78,4-13.54,8-20.3,11.94-.18.1-.37.18-.67.32,0-.11,0-.2-.06-.3,0-.39,0-.68,0-1q.11-9.09.2-18.19h-1c.06,6.46.12,12.94.18,19.62l-21.91-13q0-3.3-.06-6.63h-1c0,1.79,0,3.58,0,5.37a2,2,0,0,1-1.09,2C167,11.23,160.38,15.15,153.78,19a10.17,10.17,0,0,1-1,.49c0-.11-.07-.21-.1-.31,0-.41,0-.71,0-1,.07-6.08.15-12.15.2-18.22h-1c.06,6.48.12,13,.18,19.67l-22-13L130,0h-1c0,1.82-.05,3.65-.06,5.47a1.8,1.8,0,0,1-1,1.77Q118,13.11,108,19c-.25.15-.53.27-.89.45,0-.52-.1-.92-.09-1.32.06-6.06.14-12.11.19-18.17h-1q.08,8.91.14,17.82c0,.5,0,1,0,1.72l-.15-.08-8.79-5.18v.05q-5.89-3.49-11.8-7a2.09,2.09,0,0,1-1.2-2.06c0-1.77,0-3.53,0-5.3h-.81l-.06,5.46a1.77,1.77,0,0,1-.94,1.78q-10.17,6-20.3,12c-.21.12-.44.21-.82.39,0-.51-.1-.92-.1-1.33L61.5,0h-.84q.06,9.21.16,18.42c0,.32,0,.65-.09,1.22-.6-.32-1-.51-1.36-.74-6.5-3.85-13-7.72-19.52-11.55a2,2,0,0,1-1.18-1.94c0-1.8,0-3.6,0-5.41h-.82l-.06,5.41a1.77,1.77,0,0,1-.94,1.79c-6.78,4-13.54,8-20.3,11.94-.22.12-.44.21-.86.4,0-.59-.06-1-.05-1.35Q15.7,9.1,15.8,0H15c.06,6.49.12,13,.18,19.71ZM15.7,74c0-.9.49-1.27,1.15-1.66L32.77,63c1.59-.93,3.2-1.85,5-2.89,0,.57.09,1,.08,1.33-.08,7.66-.18,15.32-.24,23a1.92,1.92,0,0,1-1,1.89c-6.66,3.89-13.3,7.83-19.94,11.75-.29.17-.6.31-1,.51a4,4,0,0,1-.2-.85C15.53,89.83,15.64,81.92,15.7,74ZM105,72.41a1.75,1.75,0,0,1,1.05,1.7c0,7.76.12,15.52.19,23.27,0,.32,0,.64-.07,1.15-.47-.25-.8-.4-1.1-.58l-7.67-4.54v0c-4-2.35-7.94-4.71-11.92-7a2.19,2.19,0,0,1-1.29-2.17c0-7.51-.11-15-.17-22.54,0-.47,0-.94,0-1.58.48.22.83.36,1.15.54l12,7.13v0C99.8,69.36,102.37,70.89,105,72.41ZM517.49,178.56c.57.3,1,.5,1.4.74,6.47,3.83,12.92,7.69,19.42,11.48a2.19,2.19,0,0,1,1.26,2.18c0,7.52.11,15,.18,22.56,0,.47,0,.94-.07,1.59-.57-.3-1-.5-1.4-.74-6.47-3.83-12.93-7.69-19.42-11.48a2.21,2.21,0,0,1-1.26-2.18c0-7.52-.11-15-.17-22.56C517.42,179.68,517.46,179.21,517.49,178.56Zm0-2.14q.12-11.64.25-23.26a1.56,1.56,0,0,1,.8-1.57c6.9-4,13.78-8.12,20.68-12.18.12-.07.26-.1.61-.24,0,.53.07.91.06,1.29-.08,7.65-.18,15.31-.25,23a1.8,1.8,0,0,1-.91,1.8c-6.79,4-13.54,8-20.31,11.95-.21.12-.43.21-.8.4A9.19,9.19,0,0,1,517.49,176.42Zm21.59,13.77c-6.78-3.87-13.59-7.7-20.38-11.55-.25-.14-.48-.32-.85-.57a9,9,0,0,1,.95-.71c6.68-3.76,13.37-7.5,20-11.29a2,2,0,0,1,2.28,0c6.69,3.83,13.42,7.6,20.12,11.4.29.16.56.37,1.1.73-.64.36-1,.61-1.46.84q-9.82,5.52-19.66,11A1.86,1.86,0,0,1,539.08,190.19ZM539,111.1c-6.56-3.77-13.16-7.47-19.75-11.19-.37-.21-.72-.46-1.22-.78a11.84,11.84,0,0,1,1-.72c6.68-3.76,13.37-7.5,20-11.29a2,2,0,0,1,2.28,0c6.65,3.81,13.33,7.56,20,11.34.33.18.64.41,1.21.79l-1.49.86c-6.51,3.65-13,7.29-19.53,11A2.23,2.23,0,0,1,539,111.1Zm.78-26.68a1.76,1.76,0,0,1-.91,1.8c-6.79,4-13.55,8-20.32,12-.2.12-.43.2-.79.37,0-.45-.14-.81-.14-1.17.08-7.71.2-15.42.24-23.13a2,2,0,0,1,1.17-2Q529,66.46,539,60.55c.25-.14.52-.24,1-.46,0,.59.08,1,.07,1.34C540,69.1,539.86,76.76,539.79,84.42Zm-.11,28.27c.08,8.36.15,16.78.23,25.52l-22.06-13.07q-.12-12.65-.23-25.31C518.75,100.07,537.3,110.91,539.68,112.69Zm-21.55,13.69c6.91,3.94,13.83,7.84,20.74,11.76a7.77,7.77,0,0,1,.66.51c-.6.34-1,.59-1.43.82-6.51,3.66-13,7.3-19.51,11a2.32,2.32,0,0,1-2.66,0c-6.51-3.75-13.06-7.42-19.6-11.12-.37-.21-.73-.45-1.23-.78A10.15,10.15,0,0,1,496,138q10.21-5.74,20.41-11.48A1.61,1.61,0,0,1,518.13,126.38Zm-46.29,52.14c7.48,4.38,14.7,8.71,22,13,.08,8.46.16,16.89.23,25.6-.74-.41-1.17-.64-1.58-.89-6.39-3.78-12.76-7.59-19.17-11.33a2.32,2.32,0,0,1-1.36-2.27c0-7.42-.1-14.84-.16-22.26C471.79,179.86,471.82,179.34,471.84,178.52Zm0-2.43c.08-7.62.18-15.22.25-22.83a1.79,1.79,0,0,1,.9-1.8c6.83-4,13.62-8,20.43-12,.17-.09.35-.16.65-.3a5.34,5.34,0,0,1,.18,1c-.08,7.85-.18,15.7-.25,23.55a1.59,1.59,0,0,1-.91,1.51q-10.16,6-20.3,11.95c-.24.14-.5.22-.88.39C471.84,176.93,471.79,176.51,471.8,176.09Zm21.36,14c-6.55-3.76-13.15-7.46-19.73-11.18-.37-.21-.72-.46-1.23-.78.45-.31.78-.56,1.13-.77q10-5.62,20-11.26a1.81,1.81,0,0,1,2-.08c6.77,3.87,13.57,7.69,20.36,11.54a10,10,0,0,1,.94.64l-1.35.77q-9.89,5.55-19.77,11.12A2.09,2.09,0,0,1,493.16,190.07Zm1.62,2.66a2,2,0,0,1,1.17-2q10-5.84,19.94-11.74c.24-.14.51-.24,1-.46,0,.58.07,1,.07,1.34-.09,7.66-.19,15.33-.25,23a1.9,1.9,0,0,1-1,1.87q-10,5.83-19.94,11.74c-.29.17-.6.31-1.07.55,0-.53-.11-.94-.11-1.35C494.62,208.05,494.73,200.39,494.78,192.73Zm22.13-15.1c-.65-.35-1.08-.58-1.49-.83-6.43-3.8-12.84-7.63-19.28-11.4a2.2,2.2,0,0,1-1.28-2.17c0-7.52-.11-15-.18-22.54,0-.47,0-.94.06-1.58.49.23.84.36,1.15.55q9.94,5.9,19.9,11.78a1.66,1.66,0,0,1,1,1.57c0,7.86.12,15.71.19,23.56C517,176.85,517,177.13,516.91,177.63Zm-22.17-41c.09-7.57.19-15.13.25-22.7a2.11,2.11,0,0,1,1.15-2.11c6.63-3.85,13.22-7.76,19.82-11.65.29-.17.6-.3,1-.52a6.44,6.44,0,0,1,.17,1c-.08,7.81-.18,15.62-.25,23.43a1.68,1.68,0,0,1-.91,1.65q-10.17,6-20.32,12c-.2.12-.43.2-.87.41C494.78,137.49,494.74,137.07,494.74,136.64Zm22.35-38.07c-3.82-2.06-7.38-4.31-11-6.43s-7.3-4.33-11-6.51c-.08-8.46-.15-16.85-.23-25.44a10.63,10.63,0,0,1,1.14.48q10,5.92,20,11.86A1.53,1.53,0,0,1,517,74c0,7.91.13,15.82.2,23.73C517.16,97.94,517.13,98.13,517.09,98.57ZM495.66,87c6.65,3.81,13.33,7.56,20,11.33.33.19.63.42,1.18.78-1.23.71-2.24,1.3-3.25,1.87-5.87,3.3-11.76,6.57-17.61,9.91a2.45,2.45,0,0,1-2.8,0c-6.47-3.73-13-7.38-19.48-11.06-.41-.24-.81-.49-1.34-.82a7.85,7.85,0,0,1,.86-.68q10.08-5.67,20.16-11.36A2,2,0,0,1,495.66,87Zm-1.5-2.45a1.59,1.59,0,0,1-.8,1.56Q483,92.21,472.67,98.33a5,5,0,0,1-.6.22c0-.53-.07-.91-.07-1.29.09-7.66.19-15.31.26-23a1.76,1.76,0,0,1,.93-1.79q10.17-5.94,20.3-12c.21-.12.43-.21.76-.36a4.92,4.92,0,0,1,.16,1C494.33,69,494.23,76.79,494.16,84.59ZM472,99.5l22,13c.07,8.45.15,16.88.23,25.48a5,5,0,0,1-1-.36l-20.3-12a1.42,1.42,0,0,1-.85-1.36q-.08-12-.2-24C471.94,100.11,472,100,472,99.5Zm.73,27.08c6.65,3.81,13.33,7.56,20,11.33.33.19.63.42,1.21.8l-1.48.85c-6.52,3.66-13,7.29-19.54,11a2.21,2.21,0,0,1-2.53,0c-6.56-3.76-13.16-7.46-19.74-11.19-.38-.21-.73-.45-1.23-.77a11.84,11.84,0,0,1,1-.72c6.68-3.76,13.36-7.5,20-11.29A2,2,0,0,1,472.77,126.58ZM427,179q10.2,6,20.41,12.08a1.44,1.44,0,0,1,.84,1.37c0,8,.13,16,.19,24a5.5,5.5,0,0,1-.1.65c-.53-.26-.91-.44-1.28-.66-6.55-3.87-13.09-7.77-19.65-11.63a1.85,1.85,0,0,1-1.1-1.82c0-7.71-.12-15.42-.18-23.12,0-.34,0-.68,0-1.14A3.7,3.7,0,0,1,427,179Zm-.82-2.91c.09-7.51.19-15,.24-22.54a2.23,2.23,0,0,1,1.23-2.22c6.55-3.8,13.05-7.67,19.57-11.5.37-.22.76-.39,1.3-.67,0,.64.08,1.1.07,1.57-.08,7.52-.19,15-.23,22.55a2.23,2.23,0,0,1-1.24,2.2c-6.5,3.79-13,7.63-19.43,11.46l-1.43.82C426.21,177,426.16,176.51,426.16,176ZM447.41,190q-9.84-5.62-19.73-11.18c-.36-.21-.7-.47-1.24-.83l1.39-.8c6.6-3.7,13.2-7.38,19.77-11.12a2,2,0,0,1,2.27,0c6.61,3.78,13.24,7.51,19.86,11.25.37.21.7.47,1.17.78-.49.32-.83.56-1.2.77-6.59,3.71-13.19,7.4-19.76,11.14A2.21,2.21,0,0,1,447.41,190Zm1.74,2.67a1.7,1.7,0,0,1,.92-1.65c6.78-4,13.54-8,20.3-11.95.21-.12.44-.22.81-.41a9,9,0,0,1,.13,1.15c-.08,7.75-.18,15.5-.25,23.26a1.58,1.58,0,0,1-.78,1.57q-10.42,6.1-20.82,12.24a2.67,2.67,0,0,1-.49.15c0-.45-.07-.77-.06-1.1C449,208.16,449.09,200.41,449.15,192.65Zm.12-28q-.12-12.63-.23-25.29c1.11.21,19.48,10.93,22.06,12.84.08,8.36.16,16.78.23,25.53Zm-.22-27.6c.08-7.81.19-15.62.24-23.43a1.92,1.92,0,0,1,1.17-1.81c6-3.46,11.88-7,17.82-10.44,1-.57,1.93-1.12,3.14-1.82,0,.73.05,1.21,0,1.69-.08,7.56-.18,15.12-.24,22.69a1.91,1.91,0,0,1-1,1.88c-6.66,3.88-13.29,7.82-19.94,11.73-.29.18-.59.31-1,.52A6.38,6.38,0,0,1,449.05,137Zm22.38-38.38c-.64-.36-1.07-.58-1.49-.83-6.42-3.8-12.83-7.63-19.28-11.4a2.2,2.2,0,0,1-1.28-2.17c0-7.51-.11-15-.18-22.54,0-.47,0-.94.06-1.58.48.22.83.36,1.14.54l19.91,11.78a1.67,1.67,0,0,1,1,1.57c0,7.85.12,15.71.19,23.57C471.53,97.85,471.48,98.13,471.43,98.64ZM449.86,87q10.23,5.82,20.5,11.6c.2.12.38.28.77.55-.48.31-.79.54-1.12.72q-10,5.63-20,11.27a1.92,1.92,0,0,1-2.14,0c-6.74-3.85-13.5-7.65-20.25-11.46-.24-.14-.47-.32-.85-.57.37-.27.63-.52.94-.7Q437.83,92.74,448,87A1.67,1.67,0,0,1,449.86,87Zm-1.38-2.6a1.9,1.9,0,0,1-1.06,1.86q-10.05,5.88-20.06,11.8c-.25.15-.51.26-.89.44a6.65,6.65,0,0,1-.16-1c.08-7.8.18-15.6.26-23.4a1.57,1.57,0,0,1,.8-1.56c6.91-4,13.8-8.12,20.69-12.17a3.43,3.43,0,0,1,.6-.23c0,.54.07.92.06,1.29C448.64,69.08,448.54,76.74,448.48,84.39ZM427.69,100.3c6.55,3.88,13.1,7.78,19.66,11.64a1.75,1.75,0,0,1,1,1.71c0,7.76.12,15.52.19,23.29,0,.29,0,.58,0,.83l-.17.11s-.1.05-.13,0c-.26-.12-.53-.23-.79-.38l-20.93-12.41c-.08-8.45-.16-16.84-.23-25.53C426.94,99.92,427.33,100.09,427.69,100.3Zm-.5,26.29c6.61,3.78,13.25,7.51,19.87,11.25.34.19.65.42,1.23.8-.65.37-1.06.62-1.48.85q-9.82,5.52-19.66,11a1.88,1.88,0,0,1-2.14.14c-6.78-3.87-13.58-7.7-20.38-11.55-.25-.14-.48-.32-.84-.56a8.25,8.25,0,0,1,1-.72c6.68-3.76,13.37-7.5,20-11.29A2.12,2.12,0,0,1,427.19,126.59Zm-45.61,78-.79-.54c-.08-8.38-.15-16.75-.23-25.5l12.13,7.2v0l9.83,5.83q.12,12.61.23,25.28c-.53-.1-5.06-2.62-9.91-5.44v-.12Zm.57-27.89-.7.41-.8.39c0-.61-.08-1-.07-1.4.08-7.56.19-15.12.23-22.69a2.26,2.26,0,0,1,1.27-2.2q5.39-3.14,10.76-6.31v-.08l8.9-5.25c.28-.17.6-.28,1-.49.05.49.11.85.11,1.21-.09,7.71-.19,15.42-.25,23.13a1.8,1.8,0,0,1-.95,1.78l-9,5.28h0Zm19.7,13.36q-4.49-2.58-9-5.13v0l-10.9-6.16c-.28-.16-.53-.36-1-.68l.33-.25,1-.56,10.6-6v-.08q4.55-2.55,9.07-5.12a2,2,0,0,1,2.28,0c6.65,3.81,13.33,7.56,20,11.34.33.18.63.41,1.22.79l-1.49.86c-6.51,3.65-13,7.29-19.53,11A2.24,2.24,0,0,1,401.85,190.07Zm1.62,2.64a1.78,1.78,0,0,1,.94-1.78c6.74-3.94,13.45-7.92,20.17-11.88.25-.15.52-.27.94-.48,0,.51.11.92.11,1.34-.09,7.65-.19,15.31-.26,23a1.76,1.76,0,0,1-.92,1.79c-6.79,4-13.55,8-20.31,11.94-.21.13-.44.22-.86.42,0-.59-.07-1-.06-1.34C403.3,208,403.4,200.37,403.47,192.71Zm22.14-15.14c-.46-.23-.81-.37-1.12-.55-6.64-3.93-13.28-7.88-19.92-11.79a1.77,1.77,0,0,1-1-1.73c0-7.76-.13-15.52-.2-23.29,0-.32.05-.65.08-1.12.42.19.72.31,1,.47q10,5.94,20,11.87a1.76,1.76,0,0,1,1,1.72c0,7.76.13,15.52.2,23.29C425.69,176.77,425.65,177.09,425.61,177.57Zm-22.18-40.89c.08-7.61.18-15.22.24-22.82a1.91,1.91,0,0,1,1-1.9c6.66-3.88,13.28-7.82,19.92-11.74.33-.18.68-.33,1.18-.58,0,.61.06,1.07.06,1.54-.08,7.51-.19,15-.24,22.53a2.2,2.2,0,0,1-1.25,2.19q-9.73,5.68-19.42,11.44l-1.4.81C403.48,137.51,403.43,137.1,403.43,136.68Zm.36-51.05c-.08-8.51-.16-16.89-.23-25.22a.82.82,0,0,1,.22-.12s.1,0,.13,0c.26.12.53.24.78.38l20.93,12.41c.08,8.47.15,16.89.23,25.64Zm.39,1.3c6.82,3.9,13.66,7.75,20.49,11.61.21.12.39.27.71.5a9.1,9.1,0,0,1-.95.7q-10.06,5.67-20.14,11.34a1.79,1.79,0,0,1-2,.1l-9.43-5.35v0l-10.48-5.92c-.37-.21-.72-.46-1.22-.79a10.15,10.15,0,0,1,.86-.62l10.84-6.09v-.08l9.33-5.24A1.78,1.78,0,0,1,404.18,86.93Zm-1.34-2.5a1.89,1.89,0,0,1-1,1.89q-4.57,2.67-9.13,5.37h0l-10.51,6.21-.47.28-.8.4a10.34,10.34,0,0,1-.13-1.15c.08-7.72.18-15.43.25-23.14a1.8,1.8,0,0,1,.93-1.8l10.88-6.38V66L398,63c1.59-.93,3.2-1.85,5-2.89,0,.57.09,1,.08,1.33C403,69.11,402.91,76.77,402.84,84.43Zm-22,15.3.27.08c.36.18.69.34,1,.51l10.64,6.3v0l9.2,5.45a1.44,1.44,0,0,1,.86,1.37c.05,8,.13,16,.19,24a6.27,6.27,0,0,1-.1.67c-.51-.27-.9-.44-1.26-.65q-4.38-2.58-8.74-5.18v0l-10.92-6.46a1.75,1.75,0,0,1-1-1.73c-.05-7.71-.13-15.42-.19-23.13C380.72,100.55,380.77,100.21,380.8,99.73Zm0,26.59a2.08,2.08,0,0,1,.48.19c3.8,2.18,7.61,4.33,11.42,6.49v0l8.77,4.95c.32.18.63.4,1.07.69-.43.3-.72.53-1,.71l-8.8,4.95h0l-11.37,6.39c-.14.08-.28.14-.41.2l-.25.08h-.05a1.68,1.68,0,0,1-.67,0,2.73,2.73,0,0,1-.48-.2c-6.78-3.87-13.58-7.69-20.37-11.54-.25-.14-.47-.32-.84-.57.44-.3.77-.56,1.13-.77l20-11.25a2.34,2.34,0,0,1,.94-.34h0A1.59,1.59,0,0,1,380.79,126.32Zm-41.64,54.73c5.39,3.2,10.79,6.41,16.21,9.57l.42.27a2.17,2.17,0,0,1,1.1,2.07c0,7.52.12,15,.18,22.56,0,.45,0,.91-.06,1.51-.5-.25-.9-.44-1.26-.66-6.47-3.83-12.93-7.69-19.42-11.48a2.21,2.21,0,0,1-1.26-2.18c0-7.52-.11-15-.18-22.56,0-.41,0-.83.06-1.36C335.5,179,337.07,179.88,339.15,181.05Zm-4.21-4.63q.13-11.64.26-23.26a1.57,1.57,0,0,1,.79-1.57c6.91-4,13.79-8.12,20.69-12.18a2.73,2.73,0,0,1,.46-.18c0,.5.07.86.07,1.23-.09,7.65-.19,15.31-.26,23a1.83,1.83,0,0,1-.6,1.58l-.17.12-.14.1q-10.17,5.94-20.31,11.95l-.44.23-.22.09A9.38,9.38,0,0,1,334.94,176.42Zm21.93,13.93-.06,0a1.11,1.11,0,0,1-.27-.13c-6.78-3.87-13.59-7.7-20.38-11.55-.25-.14-.48-.32-.85-.57a9,9,0,0,1,.95-.71c6.68-3.76,13.37-7.5,20-11.29a2.5,2.5,0,0,1,1.1-.36,2.12,2.12,0,0,1,1,.31c6.69,3.83,13.42,7.6,20.13,11.4.27.16.54.35,1,.69-.45.29-.77.52-1.11.72l-.29.16q-9.82,5.52-19.66,11a4.33,4.33,0,0,1-.47.25,1.69,1.69,0,0,1-1,.12Zm1.82-50.75q10.1,6,20.17,11.94a1.41,1.41,0,0,1,.9,1.34c0,8.06.12,16.11.18,24.16a2,2,0,0,1-.11.42c-3.7-2-7.23-4.23-10.81-6.33s-7.3-4.33-11-6.51c-.08-8.45-.16-16.81-.23-25.36A5.1,5.1,0,0,1,358.69,139.6Zm-.85-2.91c.08-7.65.18-15.31.24-23A1.8,1.8,0,0,1,359,112c6.74-3.93,13.45-7.92,20.17-11.88.22-.13.47-.24.78-.39a8,8,0,0,1,.11,1.12c-.08,7.7-.18,15.41-.24,23.11a1.81,1.81,0,0,1-.94,1.79q-10.16,5.92-20.28,11.92c-.2.11-.42.2-.74.35C357.86,137.42,357.83,137.05,357.84,136.69Zm.08,56.27a2.24,2.24,0,0,1,1.26-2.19c6.45-3.75,12.87-7.56,19.29-11.34l1.3-.75a4.52,4.52,0,0,1,.18,1c-.08,7.85-.18,15.71-.26,23.57a2.83,2.83,0,0,1,0,.29,2.13,2.13,0,0,1-1,1.32q-10.21,6-20.41,12a3.4,3.4,0,0,1-.48.18c0-.06,0-.11,0-.17,0-.52-.05-.94,0-1.35C357.77,208,357.88,200.48,357.92,193Zm17.95-96.83q-8.37-4.95-16.73-9.9l-.25-.16a1.4,1.4,0,0,1-.71-1.29q-.07-12-.2-24a2.61,2.61,0,0,1,.06-.43c.53.22,2,1,3.93,2.08,5.86,3.47,11.64,6.89,17.46,10.35l.51.34c.07,8.39.15,16.77.23,25.28A45.78,45.78,0,0,1,375.87,96.13Zm-17.75-9.27a2.73,2.73,0,0,1,.54.23c6.65,3.81,13.33,7.56,20,11.34.32.17.61.39,1.13.74-.42.28-.72.51-1,.69l-.37.22c-6.41,3.59-12.84,7.17-19.23,10.8l-.31.18a4.33,4.33,0,0,1-.63.29h0a2.66,2.66,0,0,1-.46.09,2.37,2.37,0,0,1-1.26-.35c-6.56-3.77-13.16-7.47-19.75-11.19-.37-.21-.72-.46-1.22-.78a11.84,11.84,0,0,1,1-.72c6.68-3.76,13.36-7.5,20-11.29a2.53,2.53,0,0,1,1-.34A1.72,1.72,0,0,1,358.12,86.86Zm-1-2.44a2.37,2.37,0,0,1-.22,1.14,2.12,2.12,0,0,1-.73.69c-6.73,3.93-13.43,7.9-20.14,11.85l-.64.32-.15.07a10.29,10.29,0,0,1-.13-1.11c.08-7.71.2-15.42.24-23.13a2,2,0,0,1,1.17-2q10-5.83,19.94-11.74c.22-.13.47-.22.85-.4,0,.55.07.92.07,1.28Q357.23,72.93,357.1,84.42Zm-13,20.47,9,5.33c1.89,1.15,3.32,2.06,3.88,2.47.07,8.23.14,16.52.22,25.12a44.41,44.41,0,0,1-4.39-2.3l-16.7-9.88-.82-.56q-.12-12.58-.23-25.19C336,100.24,339.86,102.42,344.13,104.89Zm-9.05,21.35a1.48,1.48,0,0,1,.36.14c6.91,3.94,13.83,7.84,20.75,11.76a5.72,5.72,0,0,1,.56.43,8.31,8.31,0,0,1-.76.57l-.09.06-2.38,1.33q-6.72,3.78-13.43,7.57l-4.29,2.42a2.76,2.76,0,0,1-1.09.35,2.56,2.56,0,0,1-1.32-.4c-6.51-3.75-13.06-7.42-19.6-11.12-.37-.21-.73-.45-1.23-.78a10.15,10.15,0,0,1,.86-.62q10.2-5.74,20.41-11.48a2.91,2.91,0,0,1,.66-.26A1.68,1.68,0,0,1,335.08,126.24Zm-45.79,52.41.4.19c7.12,4.17,14,8.3,21,12.41a1.6,1.6,0,0,1,.49.77c.07,8.09.15,16.17.22,24.51,0,.14,0,.31-.05.5-.61-.34-1-.55-1.38-.78-6.39-3.78-12.76-7.59-19.17-11.33a2.32,2.32,0,0,1-1.36-2.27c0-7.42-.1-14.84-.16-22.26C289.25,179.89,289.28,179.39,289.29,178.65Zm0-2.56c.08-7.62.18-15.22.25-22.83a1.79,1.79,0,0,1,.9-1.8c6.82-4,13.62-8,20.43-12a5.06,5.06,0,0,1,.51-.24,4,4,0,0,1,.17.9c-.08,7.85-.18,15.7-.25,23.55a1.67,1.67,0,0,1-.21.87l-.09.11a2.09,2.09,0,0,1-.6.53q-10.17,6-20.31,11.95a5.34,5.34,0,0,1-.74.33C289.29,176.9,289.25,176.49,289.26,176.09Zm21.36,14c-6.55-3.76-13.15-7.46-19.73-11.18-.37-.21-.72-.46-1.23-.78.45-.31.78-.56,1.13-.77q10-5.62,20-11.26a2.83,2.83,0,0,1,.94-.34,1.74,1.74,0,0,1,.45.06,1.89,1.89,0,0,1,.48.2c6.77,3.87,13.58,7.69,20.37,11.54.23.13.44.29.85.58-.39.27-.68.49-1,.67l-.29.16q-9,5-17.94,10.09l-1.85,1.05a4.42,4.42,0,0,1-.56.25l-.07,0-.37.06A2.27,2.27,0,0,1,310.62,190.07Zm1.62,2.66a2,2,0,0,1,1.16-2c6.67-3.89,13.3-7.82,20-11.74.21-.12.45-.22.81-.38,0,.09,0,.16,0,.24,0,.41.05.72.05,1-.09,7.66-.19,15.33-.24,23a1.91,1.91,0,0,1-1,1.87q-10,5.83-19.94,11.74c-.24.14-.51.27-.87.45l-.06,0c0-.49-.1-.88-.1-1.27C312.08,208.05,312.19,200.39,312.24,192.73Zm22-15.17c-.57-.32-1-.53-1.36-.76-6.42-3.8-12.83-7.63-19.27-11.4a2.2,2.2,0,0,1-1.28-2.17c0-7.52-.11-15-.18-22.54,0-.45,0-.91.06-1.52.4.19.72.32,1,.49l19.9,11.78a1.64,1.64,0,0,1,1,1.57c0,7.86.12,15.71.19,23.56C334.32,176.83,334.28,177.1,334.23,177.56Zm-22-40.92c.09-7.57.19-15.13.25-22.7a2.11,2.11,0,0,1,1.15-2.11c6.63-3.85,13.22-7.76,19.82-11.65.26-.15.54-.28.89-.46a5.53,5.53,0,0,1,.16,1c-.08,7.81-.18,15.62-.25,23.43a2.22,2.22,0,0,1-.18.9,1.19,1.19,0,0,1-.09.15l-.13.18-.13.14a2.34,2.34,0,0,1-.38.28l-8.42,5-4.79,2.82-6.84,4-.87.43-.13.06C312.23,137.47,312.2,137.05,312.2,136.64Zm22.21-38.15c-3.76-2-7.28-4.25-10.87-6.35s-7.3-4.33-11-6.51c-.08-8.44-.15-16.81-.23-25.38a7.55,7.55,0,0,1,1,.42q10,5.92,20,11.86a1.53,1.53,0,0,1,.9,1.49c.05,7.91.14,15.82.21,23.73C334.48,97.93,334.45,98.12,334.41,98.49Zm-22-11.69A2.49,2.49,0,0,1,313,87c6.65,3.81,13.33,7.56,20,11.33.31.17.59.38,1.06.69a7.7,7.7,0,0,1-.64.53l-1.4.81-4.31,2.42-10.4,5.86L313.09,111a3,3,0,0,1-1.07.34,2.62,2.62,0,0,1-1.38-.4c-6.47-3.73-13-7.38-19.48-11.06-.39-.22-.78-.47-1.27-.78l-.07,0a8.64,8.64,0,0,1,.86-.67q10.08-5.67,20.16-11.36a2.69,2.69,0,0,1,.81-.3A1.88,1.88,0,0,1,312.43,86.8Zm-1-2.21a1.57,1.57,0,0,1-.8,1.56Q300.3,92.21,290,98.33h0a3.47,3.47,0,0,1-.43.16c0-.51-.06-.88-.06-1.24.09-7.66.19-15.31.25-23a1.79,1.79,0,0,1,.94-1.79q10.17-5.94,20.3-12a6.36,6.36,0,0,1,.63-.3,6.06,6.06,0,0,1,.15.94C311.65,69,311.55,76.79,311.47,84.59Zm-22,15,21.87,13c.08,8.43.15,16.85.23,25.44a5.14,5.14,0,0,1-.84-.32l-20.3-12a1.42,1.42,0,0,1-.85-1.36q-.08-12-.2-24C289.4,100.12,289.44,100,289.49,99.58Zm0,26.75a3.34,3.34,0,0,1,.56.25c6.65,3.81,13.33,7.56,20,11.33.31.18.6.39,1.11.73-.37.27-.63.49-.92.66l-.46.26q-8.35,4.68-16.7,9.38c-1,.55-1.93,1.09-2.9,1.63a2.73,2.73,0,0,1-1.08.37,2.35,2.35,0,0,1-1.24-.36c-6.56-3.76-13.16-7.46-19.74-11.19-.38-.21-.73-.45-1.23-.77a11.84,11.84,0,0,1,1-.72c6.68-3.76,13.36-7.5,20-11.29a2.52,2.52,0,0,1,1.06-.36A2.26,2.26,0,0,1,289.52,126.33ZM244.29,179q10.22,6,20.41,12.08a1.44,1.44,0,0,1,.84,1.37c0,8,.13,16,.19,24a2.75,2.75,0,0,1-.09.59c-.45-.23-.81-.4-1.14-.6-6.55-3.87-13.09-7.77-19.65-11.63a1.85,1.85,0,0,1-1.1-1.82c0-7.71-.12-15.42-.19-23.12,0-.33,0-.66.05-1.1A2.36,2.36,0,0,1,244.29,179Zm-.67-2.91c.09-7.51.19-15,.24-22.54a2.23,2.23,0,0,1,1.23-2.22c6.55-3.8,13-7.67,19.57-11.5.33-.2.69-.36,1.16-.59,0,.59.07,1,.07,1.49-.09,7.52-.19,15-.24,22.55a2.23,2.23,0,0,1-1.24,2.2c-6.49,3.79-13,7.63-19.43,11.46l-1.28.74C243.66,177,243.62,176.49,243.62,176ZM264.87,190q-9.84-5.62-19.73-11.18c-.36-.21-.7-.47-1.24-.83l1.39-.8c6.59-3.7,13.2-7.38,19.77-11.12a2.38,2.38,0,0,1,1.06-.34,2.23,2.23,0,0,1,1.06.34c6.61,3.78,13.24,7.51,19.86,11.25.37.21.7.47,1.17.78-.48.32-.83.56-1.2.77-6.58,3.71-13.19,7.4-19.75,11.14a2.65,2.65,0,0,1-1.2.38A2.6,2.6,0,0,1,264.87,190Zm1.74,2.67a1.7,1.7,0,0,1,.92-1.65c6.78-4,13.54-8,20.3-11.95.18-.11.39-.2.67-.34a9.81,9.81,0,0,1,.13,1.08c-.08,7.75-.18,15.5-.26,23.26a2.73,2.73,0,0,1-.08.67,1.85,1.85,0,0,1-.78.95q-10.38,6.08-20.73,12.19a1.6,1.6,0,0,1-.35.11c0-.42-.07-.75-.06-1.06C266.45,208.16,266.55,200.41,266.61,192.65ZM284,174.88l-17.31-10.26q-.12-12.6-.23-25.25c1.21.48,7.73,4.19,13.41,7.55v0l5,3c1.67,1,2.94,1.83,3.5,2.24.07,8.22.15,16.51.22,25.12A45.59,45.59,0,0,1,284,174.88ZM266.51,137c.08-7.81.19-15.62.24-23.43a1.92,1.92,0,0,1,1.17-1.81c5.95-3.46,11.88-7,17.82-10.44.91-.54,1.84-1.07,3-1.72a1.64,1.64,0,0,1,0,.22c0,.55,0,1,0,1.37-.08,7.56-.18,15.12-.24,22.69a1.9,1.9,0,0,1-1,1.88c-6.67,3.88-13.3,7.82-19.95,11.73-.25.16-.53.28-.88.46A5.38,5.38,0,0,1,266.51,137Zm22.24-38.45c-.56-.32-1-.53-1.35-.76-6.42-3.8-12.83-7.63-19.28-11.4a2.22,2.22,0,0,1-1.29-2.17c0-7.51-.1-15-.17-22.54,0-.45,0-.91,0-1.52a11,11,0,0,1,1,.48q9.94,5.9,19.9,11.78a1.67,1.67,0,0,1,1,1.57c0,7.85.12,15.71.19,23.57C288.84,97.84,288.8,98.11,288.75,98.57ZM267.17,87q10.23,5.82,20.5,11.6c.2.12.39.28.77.55-.48.31-.79.54-1.12.72q-10,5.63-20,11.27a2.43,2.43,0,0,1-1,.34,2.15,2.15,0,0,1-1-.3c-6.74-3.85-13.5-7.65-20.25-11.46-.24-.14-.47-.32-.85-.57.37-.27.63-.52.94-.7q10.14-5.7,20.28-11.4a2.05,2.05,0,0,1,.88-.3A1.68,1.68,0,0,1,267.17,87Zm-1.38-2.6a1.9,1.9,0,0,1-1.06,1.86q-10,5.88-20.05,11.8c-.22.13-.46.24-.76.38a5.88,5.88,0,0,1-.15-.94c.08-7.8.18-15.6.26-23.4a1.57,1.57,0,0,1,.8-1.56c6.91-4,13.8-8.12,20.69-12.17a2.92,2.92,0,0,1,.45-.18c0,.51.07.88.07,1.24C266,69.08,265.85,76.74,265.79,84.39ZM245,100.3c6.55,3.88,13.1,7.78,19.66,11.64a1.75,1.75,0,0,1,1,1.71c0,7.76.12,15.52.19,23.29,0,.29,0,.58,0,.83a.77.77,0,0,1-.17.11h0a7.36,7.36,0,0,1-.75-.36L244,125.12c-.08-8.43-.16-16.79-.23-25.46C244.31,99.94,244.67,100.1,245,100.3Zm-.5,26.29c6.61,3.78,13.25,7.51,19.87,11.25.34.19.65.42,1.23.8l-1.47.85q-9.84,5.52-19.66,11a2.54,2.54,0,0,1-1.18.41,1.93,1.93,0,0,1-.82-.27c-6.78-3.87-13.59-7.7-20.38-11.55-.25-.14-.48-.32-.84-.56a8.25,8.25,0,0,1,1-.72c6.67-3.76,13.37-7.5,20-11.29a2.3,2.3,0,0,1,1.13-.35A2.61,2.61,0,0,1,244.5,126.59ZM201.26,206c-1.44-.89-2.55-1.6-3.11-2-.07-8.32-.15-16.71-.23-25.45l21.91,13q.12,12.6.24,25.23c-1-.37-5.31-2.8-9.92-5.48v0Zm-3.32-30c.08-7.52.19-15,.23-22.55a2.32,2.32,0,0,1,1.31-2.3l1.76-1c6-3.5,12-7,18-10.56.25-.15.54-.26.9-.43a11,11,0,0,1,.1,1.15c-.08,7.71-.18,15.42-.25,23.13a1.8,1.8,0,0,1-.95,1.78c-6.7,3.91-13.38,7.87-20.07,11.81a8.46,8.46,0,0,1-1,.48C198,176.85,197.93,176.43,197.94,176Zm21.37,14c-6.56-3.77-13.16-7.46-19.74-11.19-.37-.21-.73-.46-1.23-.78.41-.29.68-.54,1-.72,6.67-3.76,13.36-7.5,20-11.28a2.39,2.39,0,0,1,1.07-.36,2.14,2.14,0,0,1,1.06.32c6.65,3.81,13.33,7.56,20,11.34.33.18.64.41,1.22.79l-1.49.86c-6.51,3.65-13,7.29-19.53,11a2.89,2.89,0,0,1-1.19.4A2.38,2.38,0,0,1,219.31,190.07Zm1.62,2.64a1.78,1.78,0,0,1,.94-1.78C228.61,187,235.32,183,242,179.05c.22-.13.47-.25.8-.41,0,.48.1.87.1,1.27-.08,7.65-.19,15.31-.25,23a1.79,1.79,0,0,1-.93,1.79c-6.78,4-13.55,8-20.31,11.94a7.08,7.08,0,0,1-.72.35c0-.54-.06-.91,0-1.27C220.76,208,220.86,200.37,220.93,192.71Zm22-15.21c-.39-.18-.7-.32-1-.48-6.63-3.93-13.27-7.88-19.91-11.79a1.77,1.77,0,0,1-1-1.73c0-7.76-.13-15.52-.2-23.29,0-.3,0-.62.07-1.06.34.16.62.27.86.41q10,5.94,20,11.87a1.79,1.79,0,0,1,1,1.72c0,7.76.12,15.52.19,23.29C243,176.75,243,177.06,242.93,177.5Zm-22-40.82c.08-7.61.18-15.22.24-22.82a1.91,1.91,0,0,1,1-1.9c6.66-3.88,13.28-7.82,19.92-11.74.29-.16.61-.31,1-.51,0,.57.07,1,.06,1.47-.08,7.51-.19,15-.23,22.53a2.22,2.22,0,0,1-1.26,2.19q-9.74,5.68-19.42,11.44l-1.26.73C220.93,137.48,220.88,137.08,220.89,136.68Zm.36-51.05c-.08-8.51-.16-16.89-.23-25.22a1.07,1.07,0,0,1,.21-.12h0c.25.12.51.24.75.37l20.92,12.41c.08,8.44.15,16.83.23,25.55Zm.24,1.3c6.82,3.9,13.67,7.75,20.5,11.61.2.12.38.27.71.5a9.14,9.14,0,0,1-1,.7q-10.06,5.67-20.14,11.34a2.35,2.35,0,0,1-.95.35,1.64,1.64,0,0,1-.92-.25c-6.82-3.9-13.66-7.74-20.5-11.61-.18-.11-.36-.26-.74-.52a7.83,7.83,0,0,1,.8-.57l.24-.14,3.5-2q8.29-4.65,16.6-9.32a2.56,2.56,0,0,1,.94-.36A1.69,1.69,0,0,1,221.49,86.93Zm-1.33-2.5a1.92,1.92,0,0,1-1,1.89c-6.66,3.89-13.3,7.83-19.94,11.75-.25.15-.54.28-.88.45a3.27,3.27,0,0,1-.18-.79c.08-7.9.19-15.81.24-23.72a2.36,2.36,0,0,1,.09-.58h0a2.07,2.07,0,0,1,1.07-1.07L215.46,63c1.55-.91,3.11-1.8,4.87-2.81,0,.53.08.89.08,1.25C220.32,69.11,220.22,76.77,220.16,84.43ZM198.93,100l20.27,12a1.46,1.46,0,0,1,.87,1.37c0,8,.12,16,.18,24a3.46,3.46,0,0,1-.08.6c-.45-.22-.81-.39-1.13-.58q-9.82-5.82-19.66-11.62a1.89,1.89,0,0,1-1.11-1.82c0-7.71-.12-15.42-.19-23.13,0-.33,0-.66,0-1.12A4.46,4.46,0,0,1,198.93,100Zm-.14,26.56c6.64,3.81,13.32,7.56,20,11.33.33.18.63.4,1.08.69-.44.3-.72.53-1,.71-6.72,3.78-13.44,7.54-20.16,11.34a2.15,2.15,0,0,1-1,.31,1.93,1.93,0,0,1-.89-.27c-6.73-3.85-13.49-7.65-20.24-11.46-.27-.15-.52-.35-1-.64.39-.26.69-.49,1-.68l.41-.24c6.16-3.46,12.32-6.9,18.47-10.38l1.19-.67a2.59,2.59,0,0,1,1-.36A2.31,2.31,0,0,1,198.79,126.58Zm-38.09,56.9,8.57,5.06c2,1.22,3.66,2.23,4.52,2.81a2,2,0,0,1,.42.72c.07,8.18.15,16.43.22,25l-.49-.26L153,204.45a1.84,1.84,0,0,1-.57-1c-.07-8.16-.15-16.27-.22-24.41a2.26,2.26,0,0,1,0-.26C153.15,179.17,156.7,181.16,160.7,183.48Zm-8.39-7.08q.12-11.62.25-23.26a1.56,1.56,0,0,1,.79-1.57Q163.7,145.51,174,139.4l0,0a4.68,4.68,0,0,1,.44-.17c0,.49.07.86.07,1.22-.09,7.7-.19,15.41-.25,23.11a1.7,1.7,0,0,1-.92,1.65c-6.82,4-13.62,8-20.43,12a4.13,4.13,0,0,1-.54.25A7.15,7.15,0,0,1,152.31,176.4Zm21.62,13.79c-6.82-3.9-13.67-7.75-20.51-11.62-.21-.12-.4-.27-.75-.5a8.89,8.89,0,0,1,.92-.71L173.76,166a2.49,2.49,0,0,1,.33-.16,1.82,1.82,0,0,1,1.17-.1,2.3,2.3,0,0,1,.37.16Q185.8,171.7,196,177.45c.28.16.52.39.9.66-.49.31-.83.56-1.19.76q-10,5.61-19.92,11.21a2.61,2.61,0,0,1-1,.35A1.71,1.71,0,0,1,173.93,190.19Zm1.36,2.33a1.73,1.73,0,0,1,.05-.35,2,2,0,0,1,.84-1.17l.24-.16c5.31-3.1,10.61-6.23,15.92-9.34,1.54-.9,3.11-1.79,4.89-2.82l0,.14c0,.54.05,1,.05,1.38-.09,7.51-.2,15-.24,22.54a2.26,2.26,0,0,1-1.26,2.2c-6.5,3.78-13,7.62-19.44,11.45-.31.19-.65.38-1.06.61l-.08,0a4.34,4.34,0,0,1-.19-.94C175.12,208.23,175.23,200.37,175.29,192.52Zm22-15-1.06-.6-20.77-12.31c-.08-8.44-.15-16.81-.23-25.38l.22.08a4.31,4.31,0,0,1,.77.34c6.68,3.95,13.36,7.92,20,11.85a1.56,1.56,0,0,1,.91,1.49c0,7.91.13,15.82.2,23.73C197.32,176.9,197.29,177.08,197.24,177.52Zm-22-41c.08-7.51.19-15,.23-22.53a2.26,2.26,0,0,1,1.25-2.2c6.46-3.75,12.87-7.56,19.3-11.36l.67-.39c.2-.11.42-.21.72-.35,0,.54.09.94.08,1.32-.08,7.61-.18,15.21-.24,22.82a1.9,1.9,0,0,1-1,1.91c-6.74,3.93-13.46,7.91-20.19,11.87-.21.12-.45.22-.81.38C175.22,137.32,175.19,136.9,175.2,136.48Zm14.46-42.43L179,87.75c-1.43-.88-2.57-1.6-3.24-2.06a1.37,1.37,0,0,1-.23-.43c-.08-8.21-.15-16.5-.23-24.8,0,0,0-.07,0-.13.81.33,3.72,1.93,7.19,3.92l12.31,7.3c1.1.68,2,1.23,2.45,1.59q.12,12.52.23,25.21C196.71,98,193.45,96.22,189.66,94.05Zm-13.47-6.88c6.52,3.73,13.07,7.41,19.62,11.11.4.23.79.5,1.35.85-.5.34-.83.59-1.2.8q-10,5.59-19.92,11.2a2.92,2.92,0,0,1-.81.31,1.79,1.79,0,0,1-.69,0,2.56,2.56,0,0,1-.5-.21q-10.09-5.76-20.25-11.47c-.26-.15-.5-.35-.91-.64.35-.26.62-.48.9-.65l.24-.13c6.6-3.72,13.2-7.41,19.78-11.15a2.84,2.84,0,0,1,.63-.28l.12,0a2,2,0,0,1,1.64.33Zm-1.72-2.77a1.91,1.91,0,0,1-1,1.87q-10,5.83-19.94,11.74c-.26.15-.54.28-.9.46a8.41,8.41,0,0,1-.14-1.11c.09-7.71.19-15.42.25-23.13a2,2,0,0,1,.51-1.48l0,0a3.14,3.14,0,0,1,.38-.29l.13-.09c6.7-3.91,13.36-7.86,20-11.8.18-.1.39-.19.67-.31l.17-.07c0,.54.07.91.07,1.27C174.63,69.07,174.53,76.74,174.47,84.4Zm-17.26,18L173.42,112q.6.39.93.63.12,12.57.24,25.16c-.82-.31-4.08-2.12-7.87-4.29l-10.88-6.44c-1.47-.91-2.61-1.64-3.17-2-.08-8.23-.15-16.53-.23-25.15C152.86,100,154.72,101,157.21,102.38ZM153,126.49c6.69,3.83,13.41,7.6,20.12,11.4.29.16.56.36,1,.63-.34.25-.57.48-.83.63-6.8,3.83-13.61,7.64-20.4,11.49a4,4,0,0,1-.37.17,2,2,0,0,1-1.15-.05,1.45,1.45,0,0,1-.22-.09c-6.82-3.89-13.67-7.74-20.5-11.61-.19-.11-.37-.25-.74-.52a7.83,7.83,0,0,1,.78-.57l.38-.22q10-5.61,20-11.23a2.46,2.46,0,0,1,.93-.32A2.08,2.08,0,0,1,153,126.49Zm-45.2,52.77c6.55,3.88,13.1,7.78,19.66,11.64a1.78,1.78,0,0,1,1.06,1.7c0,7.76.12,15.53.18,23.29,0,.3,0,.62-.08,1.13l-21.18-12.55a2,2,0,0,1-.65-1.05c-.07-8.15-.14-16.27-.22-24.58,0-.07,0-.12,0-.19C107.14,178.91,107.5,179.07,107.83,179.26Zm-1.21-3.42c.08-7.46.19-14.92.23-22.39a2.24,2.24,0,0,1,1.24-2.2q6.89-4,13.73-8.08l6-3.53.43-.24c.14-.08.3-.15.54-.26,0,.48.11.82.11,1.15-.08,7.71-.19,15.41-.25,23.12a1.77,1.77,0,0,1-1,1.76c-6.73,3.94-13.45,7.92-20.18,11.87-.22.13-.46.23-.83.4C106.64,176.77,106.61,176.3,106.62,175.84Zm22,14.53a2.08,2.08,0,0,1-.45-.19q-10.09-5.76-20.24-11.46c-.27-.16-.53-.35-1-.64.41-.28.72-.52,1-.71l.36-.21q9.82-5.5,19.65-11a2.51,2.51,0,0,1,1-.37,2.12,2.12,0,0,1,1.07.31c6.64,3.81,13.32,7.56,20,11.33.33.18.63.41,1.08.7-.42.29-.71.52-1,.7q-10.08,5.67-20.15,11.34a2.71,2.71,0,0,1-.74.28A1.74,1.74,0,0,1,128.67,190.37Zm.93,2.49a2.15,2.15,0,0,1,.77-1.85c.09-.06.17-.13.27-.19l.12-.07c6.67-3.88,13.3-7.82,19.94-11.74a3,3,0,0,1,.4-.19l.37-.17a4.44,4.44,0,0,1,.15.94c-.08,7.81-.18,15.62-.25,23.43a1.68,1.68,0,0,1-.91,1.65q-10.17,6-20.32,12c-.18.11-.38.19-.72.35,0-.6-.07-1-.06-1.43C129.44,208,129.54,200.42,129.6,192.86Zm22-15.32c-.56-.31-1-.52-1.35-.75-6.42-3.81-12.83-7.63-19.28-11.39a2.24,2.24,0,0,1-1.29-2.17c0-7.52-.11-15-.17-22.55,0-.45,0-.91,0-1.52a9.64,9.64,0,0,1,1,.47q9.94,5.9,19.91,11.78a1.77,1.77,0,0,1,1,1.71c0,7.76.12,15.52.19,23.27C151.68,176.7,151.64,177,151.6,177.54Zm-22-40.66c.08-7.72.18-15.43.26-23.14a2.39,2.39,0,0,1,.16-1,2.12,2.12,0,0,1,.11-.21l.09-.12a1.37,1.37,0,0,1,.2-.22,1.8,1.8,0,0,1,.36-.28c6.74-3.94,13.46-7.92,20.19-11.87.15-.09.33-.18.52-.27l.31-.13,0,.13c0,.54,0,.93,0,1.32-.09,7.56-.19,15.13-.25,22.69a2,2,0,0,1-1.06,2c-6.62,3.86-13.22,7.78-19.82,11.68-.28.17-.61.31-1,.51A9.26,9.26,0,0,1,129.56,136.88Zm21.09-39L129.93,85.61c-.08-8.38-.15-16.73-.23-25.4.33.14.6.24.84.35l20.7,12.26a1.4,1.4,0,0,1,.38.56c.07,8.33.15,16.6.23,25.18Zm-20.1-10.77c6.52,3.75,13.08,7.42,19.62,11.12.38.22.74.46,1.23.77a6.57,6.57,0,0,1-.81.65q-10.2,5.76-20.42,11.5l-.3.14a2.14,2.14,0,0,1-1.32-.06q-10.43-5.94-20.87-11.84a6,6,0,0,1-.47-.38c.2-.17.38-.31.54-.43a4.13,4.13,0,0,1,.38-.25c6.29-3.54,12.6-7.07,18.89-10.64l1-.58a3.2,3.2,0,0,1,.64-.29l.09,0a1.76,1.76,0,0,1,.39-.06A2.51,2.51,0,0,1,130.55,87.13Zm-1.72-2.54a1.57,1.57,0,0,1-.81,1.55q-10.37,6.06-20.69,12.17a2.26,2.26,0,0,1-.45.17c0-.51-.06-.89-.06-1.25.09-7.66.19-15.31.25-23a1.8,1.8,0,0,1,1-1.78c6.74-3.93,13.45-7.92,20.18-11.88.21-.12.45-.23.75-.37a5.9,5.9,0,0,1,.14,1C129,69,128.91,76.78,128.83,84.59Zm-22,15,21.87,13c.08,8.43.15,16.85.23,25.43a4.41,4.41,0,0,1-.84-.31l-20.3-12a1.43,1.43,0,0,1-.85-1.36c0-8-.13-16-.19-24A5,5,0,0,1,106.85,99.56Zm.73,27.08c6.57,3.76,13.17,7.46,19.75,11.19.37.21.72.45,1.21.77a11,11,0,0,1-1,.73q-10.1,5.67-20.18,11.34a3.26,3.26,0,0,1-.43.2,2,2,0,0,1-1.13,0l-.18-.07c-2.75-1.57-5.5-3.12-8.26-4.68v0l-11.9-6.73c-.37-.21-.73-.45-1.23-.77.41-.29.68-.54,1-.72l12.13-6.83h0l7.84-4.42a2.6,2.6,0,0,1,1.19-.39A2.46,2.46,0,0,1,107.58,126.64ZM61.75,179Q72,185,82.16,191A1.44,1.44,0,0,1,83,192.4c0,8,.13,16,.19,24a5.5,5.5,0,0,1-.1.65c-.52-.26-.91-.44-1.28-.66-6.54-3.87-13.09-7.77-19.65-11.63a1.87,1.87,0,0,1-1.1-1.82c0-7.71-.12-15.42-.18-23.12,0-.34,0-.68,0-1.14A3.54,3.54,0,0,1,61.75,179ZM60.94,176c.08-7.51.18-15,.24-22.54a2.22,2.22,0,0,1,1.22-2.22c6.55-3.8,13.05-7.67,19.58-11.5.36-.22.75-.39,1.29-.67,0,.64.08,1.1.08,1.57-.09,7.52-.19,15-.24,22.55a2.23,2.23,0,0,1-1.24,2.2c-6.5,3.79-13,7.63-19.43,11.46-.4.24-.81.46-1.43.82C61,177,60.94,176.51,60.94,176ZM82.18,190q-9.84-5.62-19.73-11.18c-.36-.21-.7-.47-1.23-.83l1.38-.8c6.6-3.7,13.2-7.38,19.77-11.12a2,2,0,0,1,2.27,0q6.28,3.6,12.58,7.14v0l7.51,4.25c.25.14.47.32.93.63l-.09.06-1.27.72-7.08,4v.07Q91,186.44,84.71,190A2.21,2.21,0,0,1,82.18,190Zm1.75,2.67a1.67,1.67,0,0,1,.92-1.65c4.18-2.44,8.34-4.91,12.51-7.37h0l7.19-4.24.67-.39.7-.35c0,.59.07,1,.07,1.39-.08,7.61-.19,15.22-.25,22.82a1.9,1.9,0,0,1-1,1.88l-7.49,4.4v.07l-13,7.64a3.28,3.28,0,0,1-.5.15c0-.45-.07-.77-.06-1.1C83.76,208.16,83.86,200.41,83.93,192.65ZM98,172.91l-14-8.29q-.11-12.63-.23-25.29c.66.12,7.47,4,13.41,7.5V147l7.68,4.55c.36.23.66.43.87.59q.12,12.57.24,25.16C105.18,177,101.86,175.12,98,172.91ZM83.82,137c.08-7.81.19-15.62.25-23.43a1.9,1.9,0,0,1,1.16-1.81c6-3.46,11.88-7,17.82-10.44.86-.51,1.75-1,2.8-1.62l.19-.08c0,.49.1.89.1,1.27-.08,7.66-.18,15.33-.25,23a1.8,1.8,0,0,1-.92,1.79c-2.59,1.51-5.17,3-7.75,4.56v.07L85,137.51c-.28.18-.59.31-1,.52A6.38,6.38,0,0,1,83.82,137Zm.81-50,12.59,7.13v0l7.62,4.31c.28.16.54.36,1,.69h0l-1.37.8-7.27,4.09v.07q-6.24,3.5-12.46,7a1.92,1.92,0,0,1-2.14,0c-6.73-3.85-13.49-7.65-20.24-11.46-.25-.14-.48-.32-.86-.57.37-.27.64-.52.94-.7Q72.62,92.74,82.74,87A1.67,1.67,0,0,1,84.63,87Zm-1.38-2.6a1.9,1.9,0,0,1-1.06,1.86q-10,5.88-20,11.8c-.25.15-.52.26-.89.44a5.66,5.66,0,0,1-.17-1q.14-11.7.26-23.4a1.58,1.58,0,0,1,.81-1.56c6.9-4,13.79-8.12,20.68-12.17a3.43,3.43,0,0,1,.6-.23c0,.54.07.92.07,1.29C83.41,69.08,83.31,76.74,83.25,84.39ZM62.46,100.3c6.55,3.88,13.1,7.78,19.66,11.64a1.75,1.75,0,0,1,1,1.71c0,7.76.12,15.52.19,23.29,0,.29,0,.58,0,.83a.77.77,0,0,1-.17.11s-.1.05-.13,0a8,8,0,0,1-.78-.38L61.3,125.12c-.07-8.45-.15-16.84-.23-25.53C61.71,99.92,62.1,100.09,62.46,100.3ZM62,126.59c6.61,3.78,13.25,7.51,19.87,11.25.34.19.65.42,1.23.8l-1.47.85q-9.84,5.52-19.66,11a1.9,1.9,0,0,1-2.15.14C53,146.81,46.2,143,39.4,139.13c-.25-.14-.47-.32-.84-.56a9.19,9.19,0,0,1,1-.72c6.68-3.76,13.37-7.5,20-11.29A2.12,2.12,0,0,1,62,126.59ZM38.24,192.71a1.78,1.78,0,0,1,.94-1.78C45.92,187,52.63,183,59.35,179.05c.25-.15.52-.27.95-.48,0,.51.1.92.1,1.34-.08,7.65-.19,15.31-.25,23a1.79,1.79,0,0,1-.93,1.79c-6.78,4-13.55,8-20.31,11.94a8.79,8.79,0,0,1-.86.42c0-.59-.06-1-.06-1.34C38.07,208,38.17,200.37,38.24,192.71Zm-1.61-2.64c-6.57-3.77-13.17-7.46-19.75-11.19-.37-.21-.73-.46-1.22-.78a11.85,11.85,0,0,1,1-.72c6.68-3.76,13.37-7.5,20-11.28a2,2,0,0,1,2.28,0c6.65,3.81,13.33,7.56,20,11.34.33.18.64.41,1.22.79l-1.49.86c-6.51,3.65-13,7.29-19.53,11A2.23,2.23,0,0,1,36.63,190.07Zm23.76-12.5c-.47-.23-.81-.37-1.13-.55-6.64-3.93-13.27-7.88-19.92-11.79a1.77,1.77,0,0,1-1-1.73c0-7.76-.13-15.52-.19-23.29,0-.32,0-.65.07-1.12.42.19.72.31,1,.47q10,5.94,20,11.87a1.79,1.79,0,0,1,1,1.72c0,7.76.12,15.52.19,23.29C60.47,176.77,60.42,177.09,60.39,177.57ZM38.2,136.68c.08-7.61.19-15.22.24-22.82a1.91,1.91,0,0,1,1-1.9c6.66-3.88,13.29-7.82,19.93-11.74.32-.18.67-.33,1.17-.58,0,.61.07,1.07.06,1.54-.08,7.51-.19,15-.23,22.53a2.22,2.22,0,0,1-1.26,2.19q-9.73,5.68-19.42,11.44l-1.4.81C38.25,137.51,38.2,137.1,38.2,136.68Zm.36-51.05c-.08-8.51-.15-16.89-.23-25.22a1,1,0,0,1,.22-.12s.1,0,.13,0c.26.12.53.24.78.38L60.39,73.06c.08,8.47.15,16.89.23,25.64Zm.39,1.3c6.82,3.9,13.66,7.75,20.5,11.61.2.12.38.27.71.5a10.31,10.31,0,0,1-1,.7q-10.06,5.67-20.14,11.34a1.79,1.79,0,0,1-2,.1c-6.82-3.9-13.66-7.74-20.49-11.61-.21-.12-.39-.27-.83-.58L17,98.23q10-5.6,19.91-11.18A1.78,1.78,0,0,1,39,86.93Zm-2.6,50.49q-9.83-5.82-19.66-11.62A1.9,1.9,0,0,1,15.58,124c0-7.71-.12-15.42-.18-23.13,0-.34,0-.68,0-1.17a6.05,6.05,0,0,1,1,.34l20.27,12a1.46,1.46,0,0,1,.87,1.37c0,8,.12,16,.18,24a5.36,5.36,0,0,1-.09.67C37.1,137.8,36.71,137.63,36.35,137.42ZM15.48,153.47a2.33,2.33,0,0,1,1.33-2.31c6.59-3.83,13.14-7.72,19.7-11.58.28-.17.6-.28,1-.49.05.49.11.85.11,1.21-.08,7.71-.18,15.42-.25,23.13a1.8,1.8,0,0,1-.95,1.78c-6.7,3.91-13.38,7.87-20.07,11.81-.28.17-.59.3-1.1.55,0-.69,0-1.12,0-1.55C15.33,168.5,15.45,161,15.48,153.47Zm0,50.52c-.07-8.35-.15-16.77-.23-25.54l22.06,13.09q.12,12.61.24,25.28C36.43,216.63,18.39,206.12,15.46,204Zm-.36,51.15c.08-7.61.19-15.22.25-22.82a1.91,1.91,0,0,1,1-1.89c6.66-3.89,13.28-7.82,19.93-11.73.31-.19.66-.34,1.13-.57,0,.56.09,1,.09,1.4-.09,7.56-.2,15.12-.24,22.68A2.23,2.23,0,0,1,36,244.39c-6.45,3.76-12.87,7.57-19.29,11.36l-1.52.88C15.15,256,15.1,255.56,15.1,255.14Zm43.73,2.63q-10.08,5.67-20.16,11.34a1.69,1.69,0,0,1-1.89.1q-10.3-5.86-20.64-11.7a8.11,8.11,0,0,1-.72-.53c.47-.31.75-.51,1-.68,6.59-3.71,13.2-7.39,19.77-11.14a2.45,2.45,0,0,1,2.8,0c6.48,3.72,13,7.37,19.49,11,.41.23.8.5,1.36.84C59.44,257.35,59.15,257.59,58.83,257.77ZM38.21,243.61Q38.09,231,38,218.29c1.28.31,18.42,10.31,22.06,12.83.08,8.34.16,16.77.24,25.56Zm21.4-13.91q-10.17-5.8-20.37-11.54a9.1,9.1,0,0,1-.83-.57c.44-.3.77-.56,1.12-.76q10-5.64,20-11.26a1.78,1.78,0,0,1,2-.08c6.78,3.87,13.58,7.69,20.37,11.53.25.14.47.32.93.64l-1.22.71q-10,5.61-20,11.25A1.78,1.78,0,0,1,59.61,229.7Zm1.12,25.62c.08-7.7.18-15.42.25-23.13a1.8,1.8,0,0,1,.93-1.8c6.78-4,13.54-8,20.32-12a9,9,0,0,1,.85-.36c0,.58.06,1,.06,1.35-.08,7.66-.18,15.32-.25,23a1.77,1.77,0,0,1-.93,1.78q-10.11,5.91-20.19,11.89c-.25.14-.51.25-.9.44A10.34,10.34,0,0,1,60.73,255.32Zm43.4,2.67-6.91,3.87v.08q-6.34,3.54-12.66,7.12a2.11,2.11,0,0,1-2.4,0c-6.61-3.79-13.25-7.52-19.88-11.26-.34-.19-.65-.41-1.1-.7a5.25,5.25,0,0,1,.78-.65q10.2-5.76,20.42-11.5a1.59,1.59,0,0,1,1.76-.09q6.52,3.72,13.08,7.42v0l7.07,4c.36.21.7.47,1.25.84Zm1.65-1.55a4.7,4.7,0,0,1-.49-.16l-7.93-4.69v0l-12.69-7.52a1.45,1.45,0,0,1-.86-1.37c0-8-.12-16-.19-24,0-.14,0-.29,0-.43.65.1,7.52,4,13.55,7.55V226l7.41,4.39a1.77,1.77,0,0,1,1,1.72c0,7.76.13,15.52.2,23.29C105.85,255.69,105.81,256,105.78,256.44Zm.36-26.6H106a1.75,1.75,0,0,1-.44-.1,2.89,2.89,0,0,1-.69-.3c-2.51-1.45-5-2.87-7.55-4.3v0l-11.85-6.71L84,217.59c.43-.32.71-.58,1-.76l12.35-7h0l7.69-4.34.18-.09.2-.09a2,2,0,0,1,1.33-.08,2.42,2.42,0,0,1,.48.21c6.69,3.83,13.41,7.6,20.13,11.4.28.16.54.37,1,.71-1.22.7-2.22,1.3-3.24,1.87-5.87,3.3-11.76,6.57-17.61,9.91A2.94,2.94,0,0,1,106.14,229.84Zm.32,25.72c.09-7.86.19-15.71.25-23.57a1.63,1.63,0,0,1,.05-.33,2.2,2.2,0,0,1,.9-1.22l.19-.12c5.31-3.1,10.61-6.23,15.92-9.34,1.55-.91,3.12-1.8,4.87-2.81a10.79,10.79,0,0,1,.1,1.08c-.09,7.76-.19,15.52-.25,23.28a1.8,1.8,0,0,1-1,1.74q-10.05,5.89-20.06,11.83c-.22.13-.46.24-.77.39A5.21,5.21,0,0,1,106.46,255.56Zm43.59,2.15Q140,263.38,129.9,269.06a2.37,2.37,0,0,1-1,.33,1.7,1.7,0,0,1-.89-.26c-6.77-3.87-13.57-7.69-20.36-11.53-.25-.14-.47-.33-.94-.65l1.59-.91c6.07-3.41,12.14-6.8,18.2-10.23.45-.25.9-.5,1.34-.76a3.34,3.34,0,0,1,.56-.25l.07,0a1.67,1.67,0,0,1,.38-.06,2.16,2.16,0,0,1,1.22.34c6.56,3.76,13.15,7.46,19.73,11.18.37.21.72.45,1.23.77A12,12,0,0,1,150.05,257.71Zm.41-1.74q-9.94-5.9-19.9-11.77a1.79,1.79,0,0,1-1-1.72c0-7.7-.12-15.41-.18-23.12,0-.34,0-.69.08-1.22l.59.3,20.68,12.26a1.92,1.92,0,0,1,.55.82c.07,8.27.15,16.5.23,25C151,256.27,150.72,256.13,150.46,256Zm1.46-26a2.16,2.16,0,0,1-1.06-.33c-6.65-3.8-13.33-7.55-20-11.33-.32-.18-.63-.4-1.06-.69l.3-.26a5.08,5.08,0,0,1,.66-.47c5.55-3.13,11.1-6.24,16.65-9.38l3.44-1.94a3.11,3.11,0,0,1,.47-.21l.06,0a1.7,1.7,0,0,1,.44-.08,2.07,2.07,0,0,1,1.1.32c6.66,3.81,13.34,7.56,20,11.33.31.18.61.4,1.14.75l.06.05-1.35.78c-6.6,3.7-13.21,7.39-19.79,11.13A2.66,2.66,0,0,1,151.92,230Zm.18,25c.09-7.56.19-15.12.25-22.67a2.32,2.32,0,0,1,.29-1.3l.06-.09a2.19,2.19,0,0,1,.21-.23,2.06,2.06,0,0,1,.39-.28l0,0c6.7-3.9,13.37-7.86,20.05-11.8l.16-.09.72-.35a10.44,10.44,0,0,1,.11,1.13c-.08,7.7-.18,15.41-.25,23.11a1.77,1.77,0,0,1-1,1.77Q163,250.07,153,256c-.22.13-.46.23-.82.4C152.12,255.81,152.1,255.4,152.1,255Zm44.46,2.32c-.45.26-.8.47-1.15.66-6.55,3.68-13.11,7.34-19.64,11.06a2.32,2.32,0,0,1-1.3.35,2.84,2.84,0,0,1-1.08-.37c-6.56-3.76-13.15-7.46-19.73-11.18-.37-.21-.7-.47-1.16-.78.5-.31.84-.56,1.21-.77L170.24,247l3.38-1.9.19-.09a1.61,1.61,0,0,1,.33-.15l.18-.05a1.76,1.76,0,0,1,.31,0,2.29,2.29,0,0,1,1.1.34c6.61,3.78,13.24,7.51,19.86,11.25.36.21.69.46,1.2.8Zm.55-.89a4.51,4.51,0,0,1-.79-.29l-20.28-12a1.45,1.45,0,0,1-.86-1.37c-.05-8-.13-16-.19-24a3.87,3.87,0,0,1,.09-.6c.44.22.8.39,1.12.58l19.65,11.64a2.8,2.8,0,0,1,.75.57.39.39,0,0,1,.08.1,1.64,1.64,0,0,1,.3,1c0,7.85.12,15.71.19,23.56C197.17,255.81,197.14,256.05,197.11,256.41Zm.32-26.57a2.76,2.76,0,0,1-1.21-.41c-6.51-3.74-13.06-7.41-19.6-11.11-.37-.21-.72-.46-1.23-.79.37-.26.61-.46.89-.62q10.2-5.73,20.41-11.47a2.7,2.7,0,0,1,.34-.17,1.52,1.52,0,0,1,.94,0,1.73,1.73,0,0,1,.33.13q10.35,5.89,20.74,11.76c.16.09.29.23.64.5l-1.44.83c-6.51,3.66-13,7.3-19.5,11A2.64,2.64,0,0,1,197.43,229.84Zm.44,26.67c0-.58-.08-1-.08-1.37.08-7.61.19-15.22.25-22.82a1.9,1.9,0,0,1,1-1.89c6.65-3.89,13.28-7.82,19.92-11.73.29-.17.6-.31,1-.5,0,.52.08.93.08,1.33-.09,7.56-.2,15.12-.24,22.68a2.21,2.21,0,0,1-1.27,2.18c-6.45,3.76-12.87,7.57-19.29,11.36l-1.22.71Zm43.5,1.26q-10.08,5.67-20.16,11.34a2.26,2.26,0,0,1-.89.33,1.52,1.52,0,0,1-.85-.23q-10.31-5.86-20.64-11.7a6.27,6.27,0,0,1-.66-.48,7.68,7.68,0,0,1,.79-.61l.18-.12c6.6-3.71,13.21-7.39,19.78-11.14a2.84,2.84,0,0,1,1.33-.43,2.71,2.71,0,0,1,1.32.42c6.48,3.72,13,7.37,19.49,11,.41.23.8.5,1.36.84C242,257.35,241.69,257.59,241.37,257.77Zm-20.48-14.16c-.08-8.42-.15-16.82-.23-25.27,2.08.82,18.37,10.33,21.91,12.78.08,8.31.16,16.71.24,25.47ZM243.22,230a1.82,1.82,0,0,1-.92-.26q-10.17-5.8-20.37-11.54c-.25-.13-.47-.32-.84-.57.44-.3.77-.56,1.13-.76q10-5.64,20-11.26a2.34,2.34,0,0,1,.94-.34,1.76,1.76,0,0,1,.93.26c6.77,3.87,13.57,7.69,20.36,11.53.25.14.47.32.93.64l-1.22.71q-10,5.61-20,11.25A2.34,2.34,0,0,1,243.22,230Zm.2,25.36c.08-7.7.18-15.42.25-23.13a1.81,1.81,0,0,1,.92-1.8c6.79-4,13.55-8,20.32-12a7.24,7.24,0,0,1,.71-.3c0,.54.06.92.06,1.29-.08,7.66-.18,15.32-.25,23a1.77,1.77,0,0,1-.93,1.78q-10.11,5.91-20.19,11.89c-.21.12-.45.23-.77.38A8.69,8.69,0,0,1,243.42,255.32ZM286.77,258c-6.56,3.68-13.13,7.34-19.67,11.05a2.53,2.53,0,0,1-1.12.38,2.37,2.37,0,0,1-1.14-.35c-6.6-3.79-13.24-7.52-19.87-11.26-.34-.19-.66-.41-1.11-.7a5.84,5.84,0,0,1,.79-.65L265.06,245a2.26,2.26,0,0,1,.83-.3,1.47,1.47,0,0,1,.79.21q10.43,5.94,20.89,11.85a6,6,0,0,1,.57.48Zm1.69-1.57a4,4,0,0,1-.81-.3q-10.15-6-20.29-12a1.43,1.43,0,0,1-.86-1.37q-.08-12-.19-24a2.6,2.6,0,0,1,.05-.39c1.19.44,7.78,4.18,13.55,7.6V226l5.39,3.19c1.06.66,2,1.24,2.6,1.67a1.59,1.59,0,0,1,.37.66c.07,8.16.15,16.29.22,24.57C288.48,256.2,288.47,256.32,288.46,256.44Zm.31-26.59a3.11,3.11,0,0,1-1.34-.46c-6.39-3.68-12.82-7.29-19.23-10.92l-1.52-.88a11.48,11.48,0,0,1,1-.76q10-5.6,19.91-11.21a2.73,2.73,0,0,1,1.23-.4,2.62,2.62,0,0,1,1.16.36c6.56,3.77,13.16,7.47,19.74,11.19.37.21.73.46,1.34.85-1.25.72-2.25,1.3-3.27,1.87-5.07,2.86-10.16,5.69-15.22,8.57l-2.35,1.33A3,3,0,0,1,288.77,229.85Zm.4,26.58c0-.57-.07-1-.06-1.38.08-7.52.2-15,.23-22.56a2.32,2.32,0,0,1,1.35-2.29c6.48-3.76,12.92-7.58,19.37-11.38l.16-.09c.31-.18.65-.34,1.11-.57v0c0,.65,0,1.07,0,1.48-.09,7.52-.19,15-.24,22.55a2.23,2.23,0,0,1-1.23,2.2l-.09.06c-6.47,3.77-12.9,7.59-19.34,11.4l-.53.31-.74.36Zm43.52,1.3-20.15,11.35-.37.18-.28.09h0a1.6,1.6,0,0,1-.69,0,2.33,2.33,0,0,1-.5-.21q-10.17-5.81-20.37-11.54c-.25-.14-.47-.32-.94-.65l1.33-.77q10-5.58,19.91-11.18a2.92,2.92,0,0,1,.73-.29,1.81,1.81,0,0,1,.73,0,1.85,1.85,0,0,1,.4.16q10.17,5.81,20.37,11.54c.25.14.47.31.84.57A11.5,11.5,0,0,1,332.69,257.73Zm1.39-1.19-.4-.2-21-12.47a1.6,1.6,0,0,1-.44-.66c-.08-8.25-.15-16.55-.23-25.07.56.29,1,.47,1.32.7,6.47,3.82,12.91,7.67,19.4,11.46a2.18,2.18,0,0,1,1.23,2.19c0,7.47.12,14.93.19,22.39C334.12,255.34,334.1,255.81,334.08,256.54Zm.47-26.59a2.26,2.26,0,0,1-1.13-.35c-6.6-3.79-13.24-7.51-19.87-11.26-.34-.19-.66-.41-1.11-.7a7.63,7.63,0,0,1,.78-.65q10.21-5.75,20.42-11.5a3.49,3.49,0,0,1,.54-.23,1.72,1.72,0,0,1,.81,0,1.81,1.81,0,0,1,.27.1q10.42,5.94,20.89,11.85a6,6,0,0,1,.57.48l-1.38.8q-9.82,5.5-19.66,11.05a4,4,0,0,1-.61.28l-.1,0A2,2,0,0,1,334.55,230Zm.27,26.49c0-.53-.09-.94-.08-1.34.08-7.61.19-15.21.24-22.82a1.92,1.92,0,0,1,1-1.89c6.66-3.89,13.28-7.82,19.92-11.73.29-.17.6-.31,1-.5,0,.53.08.94.08,1.34-.08,7.56-.2,15.11-.24,22.67a2.23,2.23,0,0,1-1.25,2.19c-.53.3-1.05.61-1.57.92-6,3.5-12,7.05-18,10.58-.32.19-.68.36-1.11.57Zm43.55,1.35-9.08,5.12-1.58.88-9.46,5.33a2.16,2.16,0,0,1-2,0c-6.73-3.85-13.49-7.65-20.24-11.47-.25-.14-.47-.32-.93-.64l1.22-.7q10-5.62,20-11.25a2.53,2.53,0,0,1,.94-.35,1.72,1.72,0,0,1,.48.08,1.5,1.5,0,0,1,.44.19c6.78,3.87,13.58,7.69,20.37,11.53.25.14.47.32.84.57A10.25,10.25,0,0,1,378.37,257.79Zm1.37-1.36-.42-.13a5.41,5.41,0,0,1-.59-.29l-19.89-11.78a1.64,1.64,0,0,1-1-1.57c0-7.86-.12-15.71-.19-23.57,0-.26.05-.53.09-1l.06,0c.54.3.93.51,1.3.73,6.42,3.81,12.83,7.63,19.28,11.4a2.21,2.21,0,0,1,1.28,2.17c0,7.52.11,15,.17,22.54C379.8,255.42,379.77,255.86,379.74,256.43Zm.65-26.6a2,2,0,0,1-.85-.06,5,5,0,0,1-.68-.31c-6.51-3.75-13.06-7.42-19.6-11.12-.37-.21-.72-.46-1.23-.78.37-.26.61-.47.88-.62q10.2-5.74,20.41-11.48a2,2,0,0,1,.89-.28,2,2,0,0,1,.85.27q5.81,3.31,11.63,6.59v0l9,5.12c.16.09.29.23.64.5l-1.44.83-8.24,4.63h0q-5.67,3.18-11.31,6.4a3.34,3.34,0,0,1-.56.25l-.31.09Zm0,25.42c.08-7.66.18-15.31.25-23a1.77,1.77,0,0,1,.93-1.78c3.75-2.19,7.49-4.4,11.23-6.6v-.08l8.67-5.12c.32-.19.67-.34,1.14-.57,0,.56.09,1,.08,1.4-.08,7.56-.19,15.12-.23,22.68a2.23,2.23,0,0,1-1.27,2.18l-8.54,5h0L381,256.31a2.93,2.93,0,0,1-.47.18C380.46,256,380.42,255.61,380.43,255.25Zm43.63,2.52Q414,263.44,403.9,269.11a1.69,1.69,0,0,1-1.89.1q-4.58-2.61-9.17-5.2v0l-11.41-6.46a6.07,6.07,0,0,1-.62-.44,8,8,0,0,1,.89-.69l11.14-6.27V250l8.62-4.87a2.45,2.45,0,0,1,2.8,0c6.47,3.72,13,7.37,19.49,11,.41.23.8.5,1.36.84C424.67,257.35,424.38,257.59,424.06,257.77Zm-20.63-14.16q-.12-12.65-.23-25.32c1.28.31,18.41,10.31,22.06,12.83.08,8.34.16,16.77.24,25.56Zm21.41-13.91q-10.17-5.8-20.37-11.54c-.25-.13-.47-.32-.84-.57.45-.3.78-.56,1.13-.76q10-5.64,20-11.26a1.78,1.78,0,0,1,2-.08c6.78,3.87,13.58,7.69,20.37,11.53.24.14.46.32.93.64l-1.22.71q-10,5.61-20,11.25A1.78,1.78,0,0,1,424.84,229.7ZM426,255.32c.08-7.7.18-15.42.25-23.13a1.81,1.81,0,0,1,.92-1.8c6.79-4,13.55-8,20.32-12,.21-.12.44-.18.86-.36,0,.58.06,1,.06,1.35q-.14,11.49-.25,23a1.78,1.78,0,0,1-.93,1.78q-10.12,5.91-20.2,11.89c-.24.14-.5.25-.9.44A10.12,10.12,0,0,1,426,255.32ZM469.45,258c-6.56,3.68-13.12,7.34-19.66,11.05a2.12,2.12,0,0,1-2.41,0c-6.6-3.79-13.24-7.52-19.87-11.26-.34-.19-.66-.41-1.11-.7a5.84,5.84,0,0,1,.79-.65q10.2-5.76,20.42-11.5a1.57,1.57,0,0,1,1.75-.09q10.44,5.94,20.89,11.85a4.62,4.62,0,0,1,.58.48Zm.74-1.87q-10.15-6-20.29-12a1.43,1.43,0,0,1-.86-1.37q-.07-12-.19-24a3.15,3.15,0,0,1,0-.43c1,.15,18.24,10.14,22.05,12.82.08,8.43.16,16.82.23,25.38A6.7,6.7,0,0,1,470.19,256.14ZM470,229.39c-6.39-3.68-12.82-7.29-19.23-10.92l-1.52-.88a11.48,11.48,0,0,1,1-.76q10-5.6,19.91-11.21a2.25,2.25,0,0,1,2.53,0c6.57,3.77,13.16,7.47,19.75,11.19.37.21.72.46,1.33.85l-3.26,1.87c-5.87,3.3-11.77,6.57-17.61,9.92A2.56,2.56,0,0,1,470,229.39Zm1.68,25.66c.08-7.52.2-15,.23-22.56a2.32,2.32,0,0,1,1.35-2.29c6.51-3.78,13-7.62,19.45-11.43.37-.21.75-.38,1.34-.68,0,.71,0,1.14,0,1.58-.09,7.52-.19,15-.24,22.55a2.24,2.24,0,0,1-1.24,2.21c-6.49,3.78-12.95,7.62-19.43,11.45l-1.42.82C471.69,256,471.64,255.5,471.65,255.05Zm43.73,2.68q-10.06,5.67-20.15,11.35a1.79,1.79,0,0,1-2,.08q-10.17-5.81-20.37-11.54c-.25-.14-.47-.32-.94-.65l1.34-.77q9.94-5.58,19.9-11.18a1.81,1.81,0,0,1,2-.09q10.17,5.81,20.37,11.54c.24.14.47.31.84.57C516,257.32,515.69,257.55,515.38,257.73Zm1.38-1.07-22-13.05c-.07-8.4-.15-16.86-.23-25.55.64.34,1.07.53,1.47.78,6.46,3.82,12.91,7.67,19.4,11.46a2.18,2.18,0,0,1,1.23,2.19c0,7.47.12,14.93.18,22.39C516.81,255.36,516.78,255.85,516.76,256.66ZM516,229.6c-6.6-3.79-13.24-7.51-19.87-11.26-.34-.19-.66-.41-1.11-.7a7.63,7.63,0,0,1,.78-.65q10.22-5.75,20.42-11.5a1.61,1.61,0,0,1,1.76-.09q10.44,5.94,20.89,11.85a4.62,4.62,0,0,1,.58.48l-1.38.8q-9.84,5.5-19.67,11.05A2.11,2.11,0,0,1,516,229.6Zm1.32,25.5c.08-7.61.19-15.21.25-22.82a1.9,1.9,0,0,1,1-1.89c6.66-3.89,13.28-7.82,19.92-11.73.32-.19.67-.33,1.14-.56,0,.56.09,1,.09,1.4-.09,7.56-.2,15.11-.24,22.67a2.23,2.23,0,0,1-1.27,2.19q-9.79,5.71-19.55,11.5c-.37.21-.75.39-1.27.65C517.33,255.94,517.27,255.52,517.28,255.1Zm43.78,2.69q-10.06,5.67-20.15,11.34a1.79,1.79,0,0,1-2,.08q-10.17-5.81-20.37-11.54c-.25-.14-.47-.32-.93-.64l1.22-.7q10-5.62,20-11.25a1.78,1.78,0,0,1,2-.08c6.78,3.87,13.58,7.69,20.37,11.53.24.14.47.32.83.57A9.17,9.17,0,0,1,561.06,257.79Zm-19.3-38.92c6.42,3.81,12.83,7.63,19.28,11.4a2.2,2.2,0,0,1,1.27,2.17c0,7.52.12,15,.18,22.54,0,.47,0,1-.07,1.58-.48-.23-.83-.36-1.15-.55l-19.89-11.78a1.66,1.66,0,0,1-1-1.57c0-7.86-.12-15.71-.19-23.57,0-.27.05-.55.1-1.06C540.91,218.4,541.34,218.62,541.76,218.87Zm20.62-15.66a1.45,1.45,0,0,1-.75,1.44q-10.36,6.09-20.7,12.2a6,6,0,0,1-.65.24c0-.64-.06-1.11,0-1.58.08-7.51.19-15,.23-22.55a2.24,2.24,0,0,1,1.26-2.19c6.55-3.81,13.06-7.67,19.58-11.51l1.14-.66a6.64,6.64,0,0,1,.2,1C562.56,187.49,562.46,195.35,562.38,203.21Zm-21-63.61q10.1,6,20.17,11.94a1.44,1.44,0,0,1,.9,1.34q.06,12.09.18,24.16a3,3,0,0,1-.13.49c-3.75-2-7.31-4.27-10.94-6.4s-7.3-4.33-11-6.51c-.08-8.46-.16-16.85-.23-25.4A6.21,6.21,0,0,1,541.38,139.6Zm21.15-15.69a1.78,1.78,0,0,1-.94,1.79c-6.78,4-13.54,8-20.31,11.94a9.38,9.38,0,0,1-.85.4c0-.59-.06-1,0-1.35.08-7.65.18-15.31.24-23a1.8,1.8,0,0,1,1-1.78C548.31,108,555,104,561.75,100.07c.25-.15.52-.26.91-.45a9.07,9.07,0,0,1,.12,1.18C562.7,108.5,562.6,116.21,562.53,123.91Zm.09-50.85c.08,8.45.16,16.88.24,25.46a4,4,0,0,1-.88-.28L541.56,86.16a1.45,1.45,0,0,1-.84-1.38q-.08-12-.2-24c0-.14,0-.28.1-.74C548.05,64.41,555.3,68.71,562.62,73.06ZM563,21.53q-.12,11.85-.25,23.7a1.48,1.48,0,0,1-.79,1.42q-10.41,6.1-20.81,12.25c-.08,0-.18.05-.49.15,0-.5-.07-.88-.07-1.25.09-7.7.19-15.41.25-23.12a1.68,1.68,0,0,1,.92-1.64q10.17-6,20.3-12c.2-.12.43-.21.75-.37A4.15,4.15,0,0,1,563,21.53Zm-43.48-2.32c6.6-3.7,13.2-7.39,19.77-11.13a2,2,0,0,1,2.27,0c6.61,3.78,13.24,7.51,19.86,11.25.37.21.7.47,1.17.78-.49.32-.84.56-1.21.77-6.59,3.71-13.19,7.4-19.76,11.14a2.21,2.21,0,0,1-2.53,0q-9.84-5.62-19.73-11.18c-.36-.2-.7-.46-1.23-.82C518.7,19.67,519.1,19.43,519.51,19.21Zm-1.69,1.52a4.13,4.13,0,0,1,.83.25q10.22,6,20.41,12.08a1.46,1.46,0,0,1,.85,1.38q.08,12,.19,24a5.27,5.27,0,0,1-.1.66c-.53-.27-.91-.44-1.28-.65q-9.83-5.84-19.65-11.64A1.86,1.86,0,0,1,518,45c0-7.71-.12-15.42-.19-23.13C517.78,21.53,517.81,21.19,517.82,20.73Zm.65,26.79q10.17,5.81,20.37,11.53c.24.14.47.32.84.58-.44.3-.77.56-1.12.76q-10,5.64-20,11.27a1.81,1.81,0,0,1-2,.08q-10.17-5.8-20.37-11.54c-.24-.13-.47-.31-.94-.64l1.22-.7q10-5.62,20-11.25A1.78,1.78,0,0,1,518.47,47.52ZM517.3,21.94c-.08,7.65-.18,15.31-.25,23a1.78,1.78,0,0,1-.92,1.79c-6.79,3.95-13.55,8-20.32,11.94-.2.12-.43.21-.76.37a7.08,7.08,0,0,1-.16-1c.08-7.8.18-15.61.25-23.41A1.6,1.6,0,0,1,496,33Q506.31,27,516.64,20.87a3.57,3.57,0,0,1,.59-.23C517.26,21.18,517.3,21.56,517.3,21.94Zm-43.52-2.65c6.56-3.69,13.12-7.35,19.65-11.08a2.33,2.33,0,0,1,2.67,0c6.52,3.74,13.07,7.41,19.62,11.11.37.22.73.46,1.22.77a5.75,5.75,0,0,1-.81.66L495.7,32.25a1.59,1.59,0,0,1-1.76.08q-10.38-5.91-20.77-11.77c-.16-.09-.3-.23-.69-.52ZM494.2,33.57c.07,8.48.15,16.89.23,25.65-7.5-4.45-14.73-8.74-22.06-13.07-.08-8.43-.16-16.86-.24-25.66ZM472.62,47.38Q483,53.3,493.49,59.21a5.41,5.41,0,0,1,.53.46c-.55.32-1,.56-1.38.79-6.5,3.67-13,7.3-19.5,11a2.33,2.33,0,0,1-2.67,0c-6.54-3.77-13.14-7.46-19.72-11.18-.33-.19-.65-.41-1.09-.7a4.3,4.3,0,0,1,.67-.56Q460.65,53.23,471,47.43A1.45,1.45,0,0,1,472.62,47.38Zm-.95-25.5c-.08,7.71-.18,15.42-.25,23.13a1.79,1.79,0,0,1-.95,1.78q-10.05,5.88-20.06,11.83c-.28.16-.59.29-1.08.52,0-.58-.08-.92-.07-1.25.08-7.71.19-15.42.24-23.14a1.92,1.92,0,0,1,1.08-1.86c6.66-3.88,13.3-7.81,19.95-11.73.28-.17.58-.29,1-.51A10.75,10.75,0,0,1,471.67,21.88Zm-43.94-2.45c6.73-3.79,13.46-7.55,20.17-11.36a2,2,0,0,1,2.28,0q10,5.7,20,11.33c.33.19.63.42,1.18.78-1.24.71-2.24,1.3-3.25,1.87-5.88,3.3-11.76,6.57-17.61,9.91a2.44,2.44,0,0,1-2.79,0c-6.43-3.71-12.9-7.33-19.36-11l-1.5-.87A7.33,7.33,0,0,1,427.73,19.43Zm-1.21,1.15c.57.3,1,.49,1.4.73,6.47,3.83,12.92,7.69,19.42,11.48A2.21,2.21,0,0,1,448.61,35c0,7.52.11,15,.17,22.56,0,.47,0,.94-.06,1.59-.57-.3-1-.5-1.4-.73-6.47-3.83-12.92-7.69-19.42-11.48a2.2,2.2,0,0,1-1.26-2.18c0-7.52-.11-15-.18-22.56C426.46,21.7,426.49,21.23,426.52,20.58Zm1,27.12c6.51,3.74,13.07,7.41,19.61,11.12.38.21.74.45,1.22.75a3.79,3.79,0,0,1-.63.6Q437.37,66,427,71.8a1.47,1.47,0,0,1-1.63,0L404.5,60a4.39,4.39,0,0,1-.52-.42c.49-.31.83-.56,1.2-.77,6.55-3.69,13.12-7.35,19.65-11.08A2.33,2.33,0,0,1,427.5,47.7ZM426,21.94c-.08,7.66-.18,15.33-.25,23a1.76,1.76,0,0,1-.92,1.79c-6.75,3.94-13.46,7.92-20.19,11.89-.25.14-.51.25-1,.49,0-.73,0-1.2,0-1.68.09-7.47.2-14.93.24-22.4a2.33,2.33,0,0,1,1.3-2.33c6.59-3.82,13.14-7.71,19.7-11.58.29-.17.6-.29,1.06-.51C425.92,21.13,426,21.54,426,21.94Zm-43.87-2.36,10.73-6v-.09L402.4,8.1a1.78,1.78,0,0,1,2-.08c6.77,3.87,13.58,7.69,20.37,11.53.24.14.46.32.83.57a11.17,11.17,0,0,1-1,.7L404.46,32.15a1.79,1.79,0,0,1-2,.08q-4.8-2.74-9.61-5.46v0L382.17,20.7a9.44,9.44,0,0,1-.82-.56A8.35,8.35,0,0,1,382.11,19.58Zm5.12,4.71,15.65,9.27c.07,8.46.15,16.89.23,25.65l-5.25-3.12-5-3v0l-11.17-6.62a1.85,1.85,0,0,1-.53-.82q-.11-12.33-.23-24.72C381.64,21.18,384.13,22.53,387.23,24.29Zm-6.64,23a3.12,3.12,0,0,1,1.34.45c3.58,2.07,7.17,4.1,10.76,6.13v-.05l8.9,5c.33.18.64.41,1.19.77l-3,1.73-11.67,6.56c-2.17,1.22-4.34,2.43-6.5,3.66a2.17,2.17,0,0,1-1.74.23c-.09,0-.17-.06-.26-.11C372.84,67.83,366,64,359.24,60.15c-.25-.13-.47-.31-.9-.6.52-.34.83-.57,1.17-.75,6.5-3.67,13-7.3,19.51-11A3.1,3.1,0,0,1,380.59,47.3Zm-.29-25.77c-.07,7.9-.17,15.8-.25,23.7a2.28,2.28,0,0,1,0,.26,2.14,2.14,0,0,1-1,1.32q-10.28,6-20.55,12.09l-.35.1c0-.47-.06-.84-.06-1.2q.13-11.55.25-23.12a1.68,1.68,0,0,1,.92-1.64q10.16-6,20.3-12c.17-.1.37-.19.62-.31A2.92,2.92,0,0,1,380.3,21.53Zm-44.56-1.62c.49-.28.86-.5,1.23-.7,6.6-3.7,13.2-7.39,19.77-11.13a2.34,2.34,0,0,1,1.09-.33,2.44,2.44,0,0,1,1,.34c6.6,3.78,13.23,7.51,19.85,11.25.37.21.7.47,1.18.78-.5.32-.85.56-1.22.77-6.58,3.71-13.19,7.4-19.75,11.14a3.31,3.31,0,0,1-.52.23l-.32.09H358a2,2,0,0,1-.85,0,4,4,0,0,1-.64-.3q-9.84-5.62-19.73-11.18c-.36-.2-.69-.46-1.22-.81Zm-.46.86A2.44,2.44,0,0,1,336,21l20.4,12.08a1.52,1.52,0,0,1,.79.91h0a1.65,1.65,0,0,1,.06.46c0,8,.13,16,.19,24a4.75,4.75,0,0,1-.09.59c-.45-.22-.81-.39-1.14-.58q-9.82-5.84-19.65-11.64a1.86,1.86,0,0,1-1.1-1.82c0-7.71-.12-15.42-.19-23.13C335.24,21.54,335.26,21.2,335.28,20.77Zm-.42,26.49.24,0,.17,0a2.12,2.12,0,0,1,.51.21Q346,53.33,356.15,59.05c.24.14.46.32.82.56l-.22.19a10.41,10.41,0,0,1-.88.59q-10,5.64-20,11.27a3,3,0,0,1-.77.3l-.19,0-.19,0a1.25,1.25,0,0,1-.19,0,2,2,0,0,1-.52-.21q-10.17-5.8-20.37-11.54c-.24-.13-.47-.31-.94-.64l1.22-.7q10-5.62,20-11.25A2.53,2.53,0,0,1,334.86,47.26Zm-.24-25.32c-.09,7.65-.19,15.31-.26,23A2,2,0,0,1,334,46.2a1.09,1.09,0,0,1-.13.17l-.23.18-.25.18c-6.75,3.93-13.48,7.91-20.21,11.88l-.53.27-.15.07a5.06,5.06,0,0,1-.15-.94c.08-7.8.18-15.61.25-23.41a1.6,1.6,0,0,1,.82-1.56Q323.77,27,334.1,20.87a2.92,2.92,0,0,1,.45-.18C334.58,21.2,334.62,21.58,334.62,21.94Zm-43.38-2.65c6.56-3.69,13.12-7.35,19.65-11.08a2.45,2.45,0,0,1,1.31-.39,2.64,2.64,0,0,1,1.21.41C319.93,12,326.49,15.64,333,19.34c.37.22.73.46,1.22.77a5.23,5.23,0,0,1-.81.66L313,32.25l-.26.13a1.59,1.59,0,0,1-1.05.07,1.25,1.25,0,0,1-.3-.12Q301,26.42,290.63,20.56c-.16-.09-.3-.23-.69-.52Zm-.53,1.95,20.8,12.33c.08,8.45.16,16.84.23,25.56l-21.91-13c-.08-8.39-.16-16.78-.24-25.54Zm-1,26a1.45,1.45,0,0,1,.26.11q10.43,5.92,20.87,11.83a2.91,2.91,0,0,1,.44.38,5.14,5.14,0,0,1-.74.56l-3.71,2.09-11.33,6.39q-2.62,1.47-5.24,3a2.73,2.73,0,0,1-1,.31,2.7,2.7,0,0,1-1.28-.4c-6.55-3.77-13.14-7.46-19.72-11.18-.33-.19-.65-.41-1.09-.7a4.3,4.3,0,0,1,.67-.56q10.32-5.82,20.66-11.62a1.47,1.47,0,0,1,.36-.17A1.67,1.67,0,0,1,289.67,47.27ZM289,21.88c-.09,7.71-.19,15.42-.25,23.13a2.94,2.94,0,0,1-.13.82,2,2,0,0,1-.66.84l-.12.09-.11.07c-6.68,3.91-13.33,7.86-20,11.79-.25.15-.53.26-.94.45,0-.53-.07-.86-.06-1.18.08-7.71.19-15.42.24-23.14A1.92,1.92,0,0,1,268,32.89C274.7,29,281.34,25.08,288,21.16c.24-.14.53-.27.88-.44C288.92,21.18,289,21.53,289,21.88Zm-43.8-2.45c6.72-3.79,13.46-7.55,20.17-11.36a2.5,2.5,0,0,1,1.06-.35,2.06,2.06,0,0,1,1.07.33q10,5.7,20,11.33c.3.17.59.38,1,.68a5.35,5.35,0,0,1-.51.48l-1.33.76-5.75,3.24c-4.38,2.46-8.77,4.91-13.13,7.4a3.07,3.07,0,0,1-1.34.46,2.76,2.76,0,0,1-1.3-.41c-6.43-3.71-12.9-7.33-19.36-11l-1.5-.87A7.33,7.33,0,0,1,245.19,19.43ZM244,20.65c.49.25.89.44,1.25.66,6.47,3.83,12.93,7.69,19.42,11.48A2.21,2.21,0,0,1,265.92,35c0,7.52.11,15,.18,22.56,0,.45,0,.91-.06,1.52-.49-.26-.89-.45-1.26-.66-6.47-3.83-12.92-7.69-19.42-11.48a2.2,2.2,0,0,1-1.26-2.18c0-7.52-.11-15-.18-22.56C243.92,21.72,244,21.27,244,20.65Zm-.44,26.65a2.63,2.63,0,0,1,1.27.4c6.51,3.74,13.07,7.41,19.61,11.12.38.21.74.45,1.22.75a3.79,3.79,0,0,1-.63.6L244.33,71.8a1.84,1.84,0,0,1-.75.25,1.55,1.55,0,0,1-.73-.23L222,60a4.39,4.39,0,0,1-.52-.42c.49-.31.83-.56,1.2-.77,6.55-3.69,13.12-7.35,19.65-11.08A2.74,2.74,0,0,1,243.54,47.3Zm-.25-25.36q-.12,11.49-.25,23a1.76,1.76,0,0,1-.92,1.79Q232,52.63,221.93,58.61c-.22.12-.46.23-.86.42,0-.68,0-1.15,0-1.61.09-7.47.2-14.93.24-22.4a2.33,2.33,0,0,1,1.3-2.33c6.59-3.82,13.14-7.71,19.7-11.58.25-.15.54-.27.92-.45A10.68,10.68,0,0,1,243.29,21.94Zm-43.9-2.34.44-.25,2.92-1.63,7.4-4.16h0l9.71-5.45a2.45,2.45,0,0,1,.94-.34,1.67,1.67,0,0,1,.93.26c6.78,3.87,13.58,7.69,20.37,11.53.24.14.46.32.83.57-.4.29-.69.52-1,.7L221.78,32.15a2.45,2.45,0,0,1-.94.34,1.85,1.85,0,0,1-.93-.26q-10.17-5.8-20.37-11.54c-.23-.13-.45-.3-.85-.58C199,19.89,199.18,19.73,199.39,19.6Zm-1,1.31a37.33,37.33,0,0,1,3.72,1.9l18.13,10.75c.08,8.44.15,16.83.23,25.56l-5.1-3c-5.21-3.08-10.41-6.19-15.64-9.24a2.08,2.08,0,0,1-1.21-2.05c0-7.52-.12-15-.18-22.56C198.29,21.85,198.31,21.46,198.34,20.91Zm.2,26.47a3.4,3.4,0,0,1,.49.22c6.6,3.78,13.24,7.51,19.87,11.26.33.18.64.41,1.2.77l-3,1.73c-6,3.37-12,6.72-18,10.13a2.59,2.59,0,0,1-1.36.41,2.56,2.56,0,0,1-1-.36c-6.56-3.76-13.16-7.46-19.75-11.18-.37-.22-.73-.47-1.23-.78a9.12,9.12,0,0,1,1-.73c6.62-3.73,13.25-7.44,19.86-11.19l.11-.06.25-.11A2.39,2.39,0,0,1,198.54,47.38Zm-1-26.62c0,.54.09.92.08,1.3-.08,7.56-.19,15.11-.23,22.67a2.24,2.24,0,0,1-1.27,2.19c-6.45,3.75-12.86,7.57-19.29,11.36l-1.22.7-.18.05c0-.62-.07-1.07-.06-1.5.08-7.51.19-15,.23-22.53a2.23,2.23,0,0,1,1.27-2.19c6.45-3.76,12.87-7.57,19.29-11.36.24-.15.49-.29.76-.44l.61-.3S197.58,20.74,197.58,20.76Zm-43.51-1.42,8.05-4.53L166,12.63,174.22,8a2.89,2.89,0,0,1,.31-.15,1.78,1.78,0,0,1,1.16,0,1.65,1.65,0,0,1,.39.17q10,5.73,20.12,11.39c.32.19.62.42,1.12.76l-1.39.8Q186.12,26.46,176.3,32a2.53,2.53,0,0,1-1.23.38,2.64,2.64,0,0,1-1.15-.38c-6.56-3.76-13.16-7.46-19.73-11.18-.37-.2-.71-.46-1.18-.78C153.45,19.75,153.74,19.52,154.07,19.34Zm-1.39,1.41.33.08c.25.12.47.22.67.34C160.31,25.09,166.94,29,173.59,33a1.76,1.76,0,0,1,1,1.73c0,7.71.13,15.42.2,23.12,0,.36-.05.72-.09,1.2-.39-.19-.71-.32-1-.49q-10-5.9-19.91-11.78a1.77,1.77,0,0,1-1-1.73c0-7.71-.12-15.41-.19-23.12C152.6,21.55,152.64,21.2,152.68,20.75Zm-.44,26.51a1.94,1.94,0,0,1,1,.3q10,5.73,20.11,11.39c.29.16.57.36,1,.63a7.94,7.94,0,0,1-.82.63q-10.2,5.75-20.4,11.48a2.1,2.1,0,0,1-.88.3,1.8,1.8,0,0,1-.86-.26q-10.25-5.83-20.5-11.6c-.2-.12-.39-.28-.83-.59l1.31-.76q10-5.58,19.9-11.18a3.41,3.41,0,0,1,.52-.24.61.61,0,0,1,.13,0A2.29,2.29,0,0,1,152.24,47.26ZM152,21.92c-.08,7.65-.18,15.31-.24,23a1.92,1.92,0,0,1-1.06,1.87q-10,5.86-20,11.8c-.22.12-.46.23-.76.38a5.06,5.06,0,0,1-.15-.94c.08-7.8.18-15.61.25-23.41a1.6,1.6,0,0,1,.82-1.56Q141.13,27,151.46,20.85c.1-.05.22-.09.45-.18C151.94,21.18,152,21.55,152,21.92Zm-43.46-2.6c6.59-3.71,13.2-7.4,19.78-11.14a3.5,3.5,0,0,1,.52-.25l.35-.09h0a2,2,0,0,1,.9.06,2.73,2.73,0,0,1,.59.26c6.56,3.77,13.17,7.47,19.75,11.19.37.21.72.46,1.22.78a11.57,11.57,0,0,1-1,.73q-10.08,5.66-20.17,11.33a2.21,2.21,0,0,1-1,.32,2.12,2.12,0,0,1-.9-.28q-10.18-5.8-20.39-11.54c-.24-.14-.46-.33-.92-.66ZM117.89,27c3.65,2.15,7.29,4.33,11,6.52.08,8.44.15,16.82.23,25.55l-21.91-13c-.08-8.39-.16-16.79-.24-25.48C110.78,22.74,114.31,24.94,117.89,27ZM106.52,47.21a2,2,0,0,1,1,.29c6.69,3.83,13.41,7.6,20.11,11.4.28.15.54.34.92.58l0,.05a5.88,5.88,0,0,1-.82.62C121,64,114.21,67.8,107.42,71.65a3.7,3.7,0,0,1-.42.19,2,2,0,0,1-1,0,1.43,1.43,0,0,1-.28-.13q-4.16-2.36-8.32-4.7v0L85.52,60.31c-.33-.19-.64-.41-1.09-.7a4.82,4.82,0,0,1,.67-.56q10.23-5.76,20.46-11.51A2.44,2.44,0,0,1,106.52,47.21Zm-.24-26.53c0,.6.07,1.05.06,1.5-.08,7.52-.18,15-.23,22.54a2.26,2.26,0,0,1-1.24,2.22q-3.83,2.23-7.65,4.5v.07l-12,7.11c-.28.16-.58.29-1.08.52,0-.58-.07-.92-.07-1.25.08-7.71.19-15.42.25-23.14a1.9,1.9,0,0,1,1.07-1.86q6-3.51,12-7h0l7.76-4.56C105.45,21.09,105.81,20.92,106.28,20.68ZM62.51,19.43C69.23,15.64,76,11.88,82.67,8.07a2,2,0,0,1,2.28,0q6.12,3.5,12.27,7v0l7.46,4.22c.38.21.74.45,1.22.75a4.12,4.12,0,0,1-.65.59l-8,4.52v.08c-4,2.24-8,4.47-12,6.74a2.44,2.44,0,0,1-2.79,0c-6.43-3.71-12.9-7.33-19.36-11l-1.5-.87A6.6,6.6,0,0,1,62.51,19.43Zm-1.22,1.15c.57.3,1,.49,1.4.73C69.16,25.14,75.62,29,82.11,32.79A2.21,2.21,0,0,1,83.38,35c0,7.52.11,15,.18,22.56,0,.47,0,.94-.07,1.59-.57-.3-1-.5-1.39-.73-6.47-3.83-12.93-7.69-19.42-11.48a2.21,2.21,0,0,1-1.27-2.18c0-7.52-.11-15-.18-22.56C61.23,21.7,61.27,21.23,61.29,20.58Zm1,27.12c6.51,3.74,13.07,7.41,19.61,11.12.38.21.74.45,1.22.75a3.79,3.79,0,0,1-.63.6L61.79,71.8a1.47,1.47,0,0,1-1.63,0L39.27,60a5.44,5.44,0,0,1-.52-.42c.49-.31.83-.56,1.2-.77,6.56-3.69,13.12-7.35,19.65-11.08A2.33,2.33,0,0,1,62.27,47.7ZM60.75,21.94c-.08,7.66-.18,15.33-.25,23a1.76,1.76,0,0,1-.92,1.79Q49.47,52.63,39.39,58.61c-.25.14-.51.25-1,.49,0-.73,0-1.2,0-1.68.08-7.47.19-14.93.23-22.4a2.34,2.34,0,0,1,1.31-2.33C46.48,28.87,53,25,59.58,21.11c.29-.17.6-.29,1.07-.51C60.69,21.13,60.76,21.54,60.75,21.94Zm-43.6-2.59q10-5.63,20-11.25a1.76,1.76,0,0,1,2-.08C46,11.89,52.77,15.71,59.56,19.55c.24.14.46.32.83.57-.4.29-.69.52-1,.7L39.24,32.15a1.81,1.81,0,0,1-2,.08q-10.17-5.8-20.37-11.54c-.24-.14-.46-.32-.92-.63Zm-1.48,1.18,22,13c.08,8.46.15,16.89.23,25.65l-5.25-3.12C27.42,53,22.22,49.9,17,46.85a2.08,2.08,0,0,1-1.22-2.05c0-7.52-.11-15-.18-22.56C15.6,21.77,15.64,21.3,15.67,20.53Z"/></g></g></svg>