<svg width="1440" height="200" viewBox="0 0 1440 200" fill="none" xmlns="http://www.w3.org/2000/svg">
<g clip-path="url(#clip0_71_147)">
<rect opacity="0.42" x="-60" y="70.6124" width="1546" height="53" transform="rotate(1.67326 -60 70.6124)" fill="#FBD52B"/>
<rect x="-54" y="117.612" width="1546" height="80" transform="rotate(-4.02857 -54 117.612)" fill="#FBD52B"/>
<path d="M43.0052 133.451C45.3732 133.292 47.4496 133.567 49.2344 134.276C51.0191 134.985 52.4138 136.054 53.4184 137.483C54.4496 138.911 55.0313 140.609 55.1633 142.578C55.2954 144.547 54.9458 146.307 54.1146 147.86C53.3081 149.384 52.0687 150.63 50.3964 151.597C48.7223 152.538 46.7012 153.088 44.3332 153.247L31.1229 154.133L30.748 148.545L43.5992 147.683C45.169 147.578 46.367 147.11 47.1933 146.279C48.0461 145.447 48.4279 144.366 48.3387 143.036C48.2477 141.679 47.7248 140.658 46.7702 139.974C45.8404 139.261 44.5906 138.957 43.0208 139.063L30.7684 139.885L33.6246 136.446L35.4747 164.024L28.69 164.479L26.6819 134.546L43.0052 133.451ZM57.2947 139.749L64.0395 139.296L65.9454 147.387L66.92 161.914L60.2549 162.361L59.2322 147.116L57.2947 139.749ZM76.4356 138.224L76.8211 143.971C76.1186 143.858 75.4188 143.785 74.7217 143.751C74.0246 143.718 73.37 143.722 72.7581 143.763C71.4277 143.852 70.2492 144.212 69.2224 144.842C68.1956 145.472 67.4155 146.393 66.882 147.605C66.3486 148.816 66.1417 150.314 66.2613 152.096L64.752 150.514C64.8028 148.88 64.9937 147.344 65.3248 145.905C65.6541 144.44 66.1556 143.15 66.8292 142.036C67.5276 140.893 68.415 139.978 69.4914 139.291C70.5661 138.578 71.875 138.169 73.4182 138.066C73.9237 138.032 74.4319 138.038 74.9428 138.084C75.4785 138.101 75.9761 138.148 76.4356 138.224ZM93.4085 160.738C90.5882 160.928 88.0807 160.601 85.8861 159.76C83.6897 158.891 81.9331 157.606 80.6162 155.904C79.2975 154.175 78.5587 152.126 78.3999 149.758C78.2392 147.364 78.6977 145.235 79.7755 143.372C80.8514 141.482 82.4206 139.974 84.4831 138.847C86.5438 137.693 88.9844 137.021 91.8047 136.832C94.625 136.643 97.1334 136.982 99.3297 137.851C101.524 138.692 103.268 139.979 104.56 141.709C105.877 143.412 106.615 145.46 106.776 147.855C106.935 150.223 106.476 152.352 105.4 154.241C104.349 156.102 102.793 157.61 100.733 158.764C98.6702 159.891 96.2288 160.549 93.4085 160.738ZM93.0684 155.67C94.6116 155.566 95.9099 155.199 96.9633 154.567C98.0433 153.933 98.8421 153.091 99.3596 152.041C99.902 150.962 100.126 149.717 100.031 148.307C99.9349 146.87 99.5468 145.667 98.867 144.697C98.212 143.699 97.307 142.958 96.1521 142.474C95.0237 141.988 93.6879 141.797 92.1447 141.901C90.6281 142.003 89.3298 142.37 88.2498 143.004C87.1698 143.638 86.3587 144.494 85.8163 145.573C85.2988 146.623 85.0882 147.866 85.1846 149.303C85.2792 150.713 85.654 151.918 86.309 152.916C86.9887 153.886 87.9061 154.613 89.0611 155.097C90.2161 155.581 91.5519 155.772 93.0684 155.67ZM131.238 151.947L130.973 147.995L131.156 147.141L130.824 142.192L130.528 141.37L130.092 134.865L136.757 134.418L137.873 151.06C138.066 153.934 137.59 156.398 136.445 158.453C135.326 160.505 133.684 162.112 131.516 163.273C129.349 164.434 126.789 165.114 123.836 165.312C121.76 165.451 119.827 165.314 118.035 164.899C116.27 164.483 114.513 163.786 112.763 162.808L112.412 157.579C114.119 158.721 115.869 159.499 117.66 159.913C119.479 160.326 121.293 160.471 123.102 160.35C125.896 160.163 127.994 159.367 129.396 157.963C130.799 156.56 131.413 154.554 131.238 151.947ZM121.139 156.192C119.037 156.333 117.119 156.021 115.384 155.255C113.675 154.488 112.288 153.338 111.223 151.806C110.158 150.274 109.555 148.443 109.412 146.315C109.269 144.186 109.624 142.305 110.476 140.671C111.327 139.01 112.548 137.686 114.139 136.697C115.754 135.68 117.613 135.101 119.715 134.96C121.311 134.853 122.778 135.008 124.116 135.426C125.478 135.816 126.705 136.375 127.796 137.104C128.914 137.83 129.864 138.649 130.647 139.558C131.428 140.441 132.037 141.349 132.474 142.282C132.935 143.187 133.192 144.025 133.244 144.796C133.31 145.781 133.078 146.905 132.548 148.17C132.045 149.434 131.271 150.648 130.226 151.814C129.182 152.98 127.899 153.975 126.378 154.798C124.854 155.595 123.108 156.06 121.139 156.192ZM123.018 151.335C124.748 151.219 126.273 150.649 127.594 149.625C128.94 148.573 130.076 146.987 131.003 144.866C129.8 142.862 128.462 141.442 126.989 140.606C125.515 139.742 123.926 139.368 122.223 139.482C120.866 139.573 119.712 139.904 118.762 140.476C117.836 141.019 117.138 141.761 116.666 142.701C116.219 143.613 116.036 144.668 116.117 145.865C116.195 147.036 116.518 148.056 117.084 148.927C117.648 149.771 118.44 150.413 119.458 150.853C120.475 151.265 121.661 151.426 123.018 151.335ZM140.584 134.161L147.329 133.709L149.235 141.799L150.209 156.326L143.544 156.774L142.522 141.528L140.584 134.161ZM159.725 132.636L160.11 138.384C159.408 138.27 158.708 138.197 158.011 138.164C157.314 138.13 156.659 138.134 156.047 138.175C154.717 138.264 153.538 138.624 152.512 139.254C151.485 139.884 150.705 140.805 150.171 142.017C149.638 143.229 149.431 144.726 149.551 146.509L148.041 144.926C148.092 143.292 148.283 141.756 148.614 140.317C148.943 138.852 149.445 137.562 150.119 136.448C150.817 135.305 151.704 134.391 152.781 133.704C153.855 132.99 155.164 132.582 156.708 132.478C157.213 132.444 157.721 132.45 158.232 132.496C158.768 132.514 159.265 132.56 159.725 132.636ZM184.479 154.027L182.964 145.79L183.838 142.685L182.56 139.764L182.956 131.318L189.86 130.855L189.306 142.318L191.384 153.564L184.479 154.027ZM185.475 142.575C185.21 144.998 184.566 147.153 183.543 149.039C182.545 150.897 181.215 152.376 179.551 153.476C177.914 154.575 176.032 155.196 173.903 155.338C171.695 155.486 169.706 155.125 167.937 154.255C166.167 153.358 164.743 152.051 163.665 150.332C162.613 148.586 162.007 146.528 161.848 144.16C161.687 141.766 162.013 139.646 162.824 137.801C163.661 135.927 164.898 134.441 166.534 133.342C168.169 132.217 170.091 131.58 172.299 131.432C174.428 131.289 176.377 131.653 178.146 132.523C179.941 133.392 181.471 134.692 182.737 136.425C184.001 138.13 184.913 140.181 185.475 142.575ZM168.593 143.708C168.682 145.038 169.027 146.191 169.627 147.166C170.253 148.14 171.065 148.887 172.062 149.408C173.057 149.903 174.18 150.108 175.431 150.024C176.681 149.94 177.833 149.582 178.887 148.95C179.965 148.29 180.896 147.426 181.679 146.358C182.463 145.289 183.05 144.074 183.439 142.712C182.871 141.413 182.127 140.287 181.208 139.333C180.287 138.353 179.249 137.621 178.094 137.137C176.964 136.625 175.774 136.411 174.523 136.495C173.273 136.578 172.188 136.945 171.27 137.595C170.349 138.218 169.644 139.067 169.155 140.142C168.691 141.189 168.504 142.377 168.593 143.708ZM193.239 130.629L199.904 130.181L201.922 138.746L202.864 152.794L196.199 153.241L195.19 138.195L193.239 130.629ZM209.403 128.943C211.425 128.807 213.184 129.13 214.679 129.912C216.173 130.667 217.346 131.818 218.198 133.364C219.077 134.909 219.59 136.785 219.738 138.994L220.585 151.605L213.92 152.052L213.14 140.438C213.003 138.39 212.447 136.877 211.473 135.9C210.523 134.895 209.197 134.449 207.494 134.563C206.297 134.644 205.279 135.006 204.44 135.65C203.6 136.268 202.974 137.098 202.563 138.141C202.178 139.183 202.033 140.409 202.128 141.819L199.855 140.809C199.961 138.396 200.437 136.333 201.284 134.619C202.131 132.905 203.244 131.561 204.622 130.587C206.026 129.61 207.62 129.062 209.403 128.943ZM227.083 127.757C229.105 127.621 230.864 127.944 232.359 128.726C233.88 129.479 235.066 130.629 235.918 132.175C236.797 133.72 237.31 135.596 237.459 137.805L238.305 150.416L231.64 150.864L230.861 139.25C230.723 137.201 230.167 135.688 229.193 134.711C228.244 133.706 226.917 133.26 225.215 133.374C224.017 133.455 222.999 133.817 222.161 134.461C221.32 135.079 220.694 135.909 220.283 136.953C219.899 137.994 219.754 139.22 219.848 140.63L217.576 139.62C217.681 137.207 218.157 135.144 219.004 133.43C219.852 131.716 220.964 130.372 222.342 129.398C223.746 128.422 225.327 127.875 227.083 127.757ZM240.36 127.467L247.025 127.02L249.043 135.584L249.985 149.633L243.32 150.08L242.311 135.034L240.36 127.467ZM256.523 125.782C258.545 125.646 260.304 125.969 261.8 126.751C263.294 127.506 264.467 128.656 265.319 130.203C266.198 131.748 266.711 133.624 266.859 135.832L267.705 148.444L261.04 148.891L260.261 137.277C260.124 135.229 259.568 133.716 258.594 132.739C257.644 131.733 256.318 131.288 254.615 131.402C253.418 131.482 252.4 131.845 251.561 132.489C250.72 133.107 250.095 133.937 249.684 134.98C249.299 136.022 249.154 137.247 249.249 138.658L246.976 137.647C247.081 135.235 247.558 133.172 248.405 131.458C249.252 129.744 250.365 128.4 251.742 127.425C253.147 126.449 254.741 125.901 256.523 125.782ZM274.203 124.596C276.226 124.46 277.984 124.783 279.48 125.565C281.001 126.318 282.187 127.468 283.039 129.014C283.918 130.559 284.431 132.435 284.579 134.644L285.425 147.255L278.76 147.702L277.981 136.089C277.844 134.04 277.288 132.527 276.314 131.55C275.364 130.545 274.038 130.099 272.335 130.213C271.138 130.294 270.12 130.656 269.281 131.3C268.441 131.918 267.815 132.748 267.404 133.791C267.019 134.833 266.874 136.059 266.969 137.469L264.696 136.459C264.802 134.046 265.278 131.983 266.125 130.269C266.972 128.555 268.085 127.211 269.463 126.237C270.867 125.26 272.447 124.713 274.203 124.596ZM288.581 123.992L291.936 124.408L295.246 123.545L296.785 146.493L290.12 146.94L288.581 123.992ZM291.735 121.415C290.538 121.495 289.533 121.255 288.721 120.695C287.933 120.107 287.504 119.293 287.434 118.256C287.363 117.192 287.679 116.328 288.383 115.666C289.112 114.976 290.075 114.591 291.272 114.51C292.496 114.428 293.502 114.682 294.29 115.27C295.076 115.832 295.505 116.645 295.576 117.71C295.646 118.747 295.329 119.61 294.627 120.299C293.923 120.961 292.959 121.333 291.735 121.415ZM299.212 123.519L305.877 123.072L307.895 131.636L308.837 145.685L302.172 146.132L301.163 131.086L299.212 123.519ZM315.934 121.796C318.089 121.651 319.955 121.967 321.53 122.744C323.104 123.493 324.343 124.64 325.249 126.182C326.154 127.725 326.681 129.601 326.829 131.809L327.675 144.421L321.01 144.868L320.231 133.254C320.093 131.205 319.497 129.695 318.443 128.724C317.388 127.725 315.915 127.29 314.026 127.416C312.749 127.502 311.638 127.871 310.692 128.522C309.772 129.145 309.08 129.98 308.615 131.027C308.178 132.072 308.006 133.299 308.101 134.709L305.828 133.699C305.934 131.287 306.436 129.222 307.337 127.504C308.237 125.787 309.43 124.437 310.914 123.456C312.398 122.474 314.072 121.921 315.934 121.796ZM352.186 137.124L351.921 133.173L352.104 132.319L351.772 127.37L351.477 126.548L351.04 120.042L357.705 119.595L358.822 136.238C359.015 139.111 358.539 141.575 357.393 143.63C356.275 145.683 354.632 147.29 352.465 148.451C350.298 149.612 347.738 150.291 344.784 150.489C342.709 150.629 340.775 150.491 338.984 150.077C337.219 149.661 335.461 148.963 333.712 147.985L333.361 142.757C335.068 143.898 336.817 144.676 338.609 145.091C340.427 145.503 342.241 145.649 344.051 145.527C346.844 145.34 348.942 144.544 350.345 143.141C351.747 141.737 352.361 139.731 352.186 137.124ZM342.088 141.369C339.986 141.51 338.067 141.198 336.332 140.432C334.624 139.665 333.237 138.515 332.172 136.983C331.107 135.451 330.503 133.621 330.36 131.492C330.218 129.364 330.572 127.482 331.425 125.848C332.276 124.188 333.496 122.863 335.087 121.874C336.703 120.857 338.561 120.278 340.663 120.137C342.26 120.03 343.727 120.185 345.065 120.603C346.427 120.993 347.654 121.552 348.745 122.281C349.863 123.008 350.813 123.826 351.596 124.736C352.377 125.619 352.985 126.527 353.422 127.459C353.884 128.364 354.14 129.202 354.192 129.974C354.258 130.958 354.026 132.083 353.496 133.348C352.993 134.611 352.219 135.825 351.175 136.991C350.131 138.157 348.848 139.152 347.326 139.976C345.803 140.773 344.057 141.237 342.088 141.369ZM343.967 136.513C345.696 136.397 347.222 135.827 348.543 134.803C349.889 133.75 351.025 132.164 351.952 130.044C350.748 128.04 349.41 126.619 347.938 125.783C346.463 124.92 344.875 124.545 343.172 124.659C341.815 124.75 340.661 125.082 339.711 125.653C338.785 126.196 338.086 126.938 337.615 127.878C337.168 128.79 336.985 129.845 337.065 131.042C337.144 132.213 337.466 133.234 338.032 134.104C338.597 134.949 339.388 135.59 340.407 136.03C341.423 136.443 342.61 136.604 343.967 136.513Z" fill="#111013"/>
<path d="M403.761 135.308C402.832 135.37 402.126 134.954 401.698 134.444C401.271 133.933 400.673 134.098 400.634 133.513C400.588 132.83 401.134 131.159 401.431 130.453C401.727 129.747 401.965 129.343 402.294 128.39C402.624 127.437 403.137 126.748 403.091 125.33C401.827 126.248 400.812 126.654 400.232 127.526C399.649 128.349 398.673 129.047 398.37 129.656C398.067 130.264 398.003 130.34 397.44 130.72C397.065 130.991 396.998 131.752 396.509 131.785C395.628 131.844 393.978 130.832 393.382 129.99C392.886 129.191 393.042 128.597 393.248 127.995C393.453 127.393 393.664 127.308 394.179 126.93C394.886 126.491 395.422 125.844 396.107 125.799C396.792 125.753 398.178 125.758 399.1 125.598C400.02 125.389 400.654 125.177 402.027 124.399C400.654 123.707 400.003 123.68 398.967 123.602C397.979 123.521 396.64 122.756 395.906 122.805C395.173 122.854 394.517 123.192 393.911 122.939C393.353 122.683 393.13 122.577 392.846 122.008C392.559 121.391 392.324 120.823 392.712 120.013C393.191 119.099 394.691 117.876 395.572 117.816C395.914 117.794 396.033 118.543 396.636 118.747C397.298 119.095 397.316 119.067 397.701 119.678C398.132 120.237 399.194 120.847 399.83 121.54C400.466 122.232 401.63 122.591 402.958 123.334C402.817 121.972 402.212 121.309 401.759 120.408C401.306 119.508 401.015 119.14 400.627 118.48C400.236 117.771 399.471 116.187 399.429 115.553C399.39 114.968 400.004 115.051 400.36 114.489C400.715 113.926 401.359 113.419 402.288 113.357C403.217 113.295 403.923 113.71 404.351 114.221C404.778 114.731 405.376 114.566 405.415 115.152C405.458 115.786 404.912 117.457 404.618 118.212C404.322 118.918 404.084 119.321 403.754 120.274C403.474 121.224 402.964 121.962 402.958 123.334C404.222 122.417 405.328 121.906 405.817 121.138C406.355 120.367 406.378 119.684 406.681 119.076C407.03 118.415 408 118.377 408.609 117.944C409.03 117.622 409.051 116.912 409.54 116.879C410.372 116.824 412.018 117.787 412.667 118.674C413.16 119.425 413.003 120.019 412.801 120.67C412.596 121.271 412.389 121.406 411.87 121.734C411.303 122.066 410.767 122.713 409.942 122.866C409.163 122.967 407.966 122.851 406.949 123.067C405.931 123.282 404.156 123.619 403.024 124.332C404.237 124.839 406.046 124.985 407.082 125.062C408.119 125.14 409.238 124.82 410.076 124.861C410.91 124.854 411.581 125.469 412.138 125.725C412.699 126.031 412.919 126.087 413.203 126.656C413.536 127.222 413.77 127.79 413.337 128.652C412.907 129.562 411.407 130.786 410.477 130.848C409.988 130.881 409.82 130.135 409.413 129.917C408.852 129.612 408.778 129.545 408.348 128.986C407.966 128.424 406.907 127.863 406.219 127.125C405.576 126.335 404.516 126.067 403.091 125.33C403.291 126.836 403.885 127.352 404.29 128.256C404.743 129.157 405.104 130.571 405.489 131.183C405.873 131.794 406.511 131.479 406.553 132.113C406.596 132.748 406.045 133.613 405.689 134.176C405.334 134.739 404.69 135.245 403.761 135.308Z" fill="#111013"/>
<path d="M461.505 105.375C464.991 105.141 468.079 105.562 470.771 106.638C473.489 107.712 475.654 109.317 477.268 111.454C478.881 113.591 479.788 116.162 479.99 119.169C480.19 122.149 479.634 124.819 478.323 127.179C477.009 129.512 475.077 131.392 472.527 132.819C470.004 134.245 466.999 135.074 463.513 135.308L449.305 136.261L447.297 106.328L461.505 105.375ZM455.871 133.135L452.216 130.052L463.631 129.287C465.653 129.151 467.397 128.66 468.864 127.813C470.357 126.965 471.471 125.834 472.204 124.422C472.938 123.01 473.245 121.412 473.126 119.629C473.004 117.82 472.486 116.278 471.572 115.003C470.657 113.701 469.402 112.73 467.809 112.088C466.242 111.445 464.448 111.191 462.426 111.327L451.012 112.093L454.222 108.55L455.871 133.135ZM505.826 132.469L504.311 124.232L505.185 121.127L503.907 118.206L504.302 109.76L511.207 109.297L510.653 120.76L512.73 132.006L505.826 132.469ZM506.821 121.017C506.556 123.44 505.912 125.595 504.89 127.481C503.892 129.339 502.561 130.818 500.898 131.918C499.261 133.017 497.378 133.637 495.25 133.78C493.041 133.928 491.053 133.567 489.284 132.697C487.513 131.8 486.089 130.493 485.012 128.774C483.959 127.028 483.353 124.97 483.194 122.602C483.034 120.208 483.359 118.088 484.171 116.243C485.007 114.369 486.244 112.883 487.881 111.784C489.516 110.659 491.437 110.022 493.646 109.874C495.774 109.731 497.723 110.095 499.492 110.965C501.287 111.834 502.818 113.134 504.083 114.867C505.347 116.572 506.26 118.623 506.821 121.017ZM489.939 122.15C490.028 123.48 490.373 124.633 490.973 125.608C491.6 126.582 492.411 127.329 493.409 127.85C494.404 128.345 495.527 128.55 496.777 128.466C498.028 128.382 499.18 128.024 500.233 127.392C501.311 126.732 502.242 125.868 503.026 124.8C503.809 123.731 504.396 122.516 504.786 121.154C504.218 119.855 503.474 118.729 502.555 117.775C501.634 116.795 500.596 116.063 499.441 115.579C498.311 115.067 497.12 114.853 495.87 114.937C494.619 115.02 493.535 115.387 492.616 116.037C491.696 116.66 490.991 117.509 490.502 118.584C490.037 119.631 489.85 120.819 489.939 122.15ZM513.686 114.182L513.488 111.229L518.132 109.354L520.53 102.658L524.361 102.401L524.763 108.388L534.82 107.713L535.157 112.742L525.1 113.417L525.654 121.678C525.772 123.434 526.214 124.647 526.981 125.317C527.772 125.959 529.073 126.219 530.882 126.098C532.026 126.021 533.03 125.847 533.894 125.575C534.757 125.303 535.575 124.941 536.346 124.489L536.694 129.677C535.944 130.048 534.94 130.409 533.68 130.761C532.423 131.139 531.116 131.374 529.759 131.465C527.391 131.624 525.437 131.381 523.897 130.736C522.381 130.063 521.219 129.071 520.41 127.763C519.627 126.452 519.175 124.892 519.054 123.083L518.435 113.864L513.686 114.182ZM560.468 128.804L558.954 120.567L559.828 117.461L558.549 114.54L558.945 106.095L565.849 105.631L565.295 117.094L567.373 128.34L560.468 128.804ZM561.464 117.351C561.199 119.774 560.555 121.929 559.532 123.815C558.534 125.673 557.204 127.152 555.54 128.252C553.904 129.351 552.021 129.972 549.892 130.114C547.684 130.263 545.695 129.902 543.927 129.031C542.156 128.135 540.732 126.827 539.654 125.109C538.602 123.362 537.996 121.304 537.837 118.936C537.676 116.542 538.002 114.422 538.814 112.577C539.65 110.703 540.887 109.217 542.524 108.118C544.159 106.993 546.08 106.356 548.289 106.208C550.417 106.065 552.366 106.429 554.135 107.299C555.93 108.168 557.461 109.468 558.726 111.201C559.99 112.907 560.902 114.957 561.464 117.351ZM544.582 118.484C544.671 119.814 545.016 120.967 545.616 121.942C546.242 122.916 547.054 123.663 548.051 124.184C549.047 124.679 550.17 124.884 551.42 124.8C552.671 124.716 553.823 124.358 554.876 123.727C555.954 123.066 556.885 122.202 557.669 121.134C558.452 120.066 559.039 118.85 559.429 117.488C558.86 116.19 558.117 115.064 557.197 114.11C556.276 113.129 555.238 112.397 554.083 111.913C552.953 111.401 551.763 111.187 550.512 111.271C549.262 111.355 548.177 111.721 547.259 112.371C546.338 112.994 545.634 113.843 545.145 114.918C544.68 115.965 544.493 117.154 544.582 118.484ZM569.768 97.3105L576.433 96.8634L577.456 112.109L576.658 113.967L576.99 118.916L578.031 120.69L578.494 127.594L571.829 128.041L569.768 97.3105ZM575.379 116.418C575.643 113.968 576.286 111.813 577.311 109.954C578.334 108.068 579.663 106.576 581.3 105.477C582.937 104.378 584.82 103.757 586.948 103.615C589.157 103.467 591.146 103.841 592.917 104.738C594.686 105.608 596.11 106.915 597.189 108.661C598.266 110.379 598.885 112.435 599.046 114.83C599.205 117.198 598.866 119.319 598.03 121.192C597.191 123.039 595.955 124.525 594.32 125.651C592.683 126.749 590.76 127.373 588.552 127.521C586.424 127.664 584.475 127.3 582.706 126.43C580.937 125.56 579.421 124.272 578.157 122.566C576.918 120.831 575.992 118.782 575.379 116.418ZM592.261 115.285C592.172 113.955 591.814 112.803 591.188 111.829C590.586 110.827 589.787 110.079 588.792 109.585C587.795 109.064 586.684 108.844 585.46 108.926C584.21 109.01 583.046 109.382 581.967 110.042C580.887 110.676 579.956 111.54 579.175 112.635C578.418 113.702 577.844 114.916 577.455 116.279C578.023 117.577 578.753 118.704 579.646 119.659C580.565 120.613 581.603 121.346 582.76 121.856C583.915 122.34 585.118 122.54 586.368 122.456C587.592 122.374 588.664 122.021 589.585 121.398C590.503 120.748 591.195 119.9 591.659 118.854C592.15 117.805 592.351 116.616 592.261 115.285ZM624.504 124.508L622.989 116.271L623.863 113.165L622.585 110.244L622.981 101.799L629.885 101.336L629.331 112.798L631.409 124.044L624.504 124.508ZM625.5 113.055C625.235 115.479 624.591 117.633 623.568 119.519C622.57 121.377 621.24 122.856 619.576 123.956C617.939 125.055 616.057 125.676 613.928 125.819C611.72 125.967 609.731 125.606 607.962 124.735C606.192 123.839 604.768 122.531 603.69 120.813C602.637 119.066 602.032 117.008 601.873 114.64C601.712 112.246 602.038 110.126 602.849 108.281C603.686 106.407 604.922 104.921 606.559 103.822C608.194 102.697 610.116 102.06 612.324 101.912C614.453 101.769 616.402 102.133 618.171 103.003C619.966 103.872 621.496 105.172 622.762 106.905C624.026 108.611 624.938 110.661 625.5 113.055ZM608.618 114.188C608.707 115.518 609.052 116.671 609.652 117.646C610.278 118.62 611.09 119.367 612.087 119.888C613.082 120.383 614.205 120.588 615.456 120.504C616.706 120.42 617.858 120.063 618.912 119.431C619.99 118.77 620.921 117.906 621.704 116.838C622.488 115.77 623.075 114.554 623.464 113.192C622.896 111.894 622.152 110.768 621.233 109.814C620.312 108.833 619.274 108.101 618.119 107.617C616.989 107.105 615.799 106.891 614.548 106.975C613.298 107.059 612.213 107.425 611.295 108.075C610.374 108.698 609.669 109.547 609.18 110.622C608.716 111.669 608.528 112.858 608.618 114.188ZM660.211 114.936C660.32 116.559 659.935 117.988 659.055 119.223C658.203 120.456 656.866 121.441 655.044 122.178C653.221 122.889 650.966 123.334 648.278 123.514C645.511 123.7 643.081 123.529 640.988 123.001C638.893 122.447 637.231 121.583 636.003 120.409C634.775 119.235 634.066 117.826 633.875 116.182L640.66 115.727C640.87 116.461 641.313 117.086 641.989 117.602C642.663 118.091 643.515 118.448 644.546 118.673C645.603 118.896 646.81 118.962 648.167 118.871C650.056 118.744 651.466 118.436 652.395 117.946C653.351 117.454 653.8 116.783 653.743 115.931C653.702 115.319 653.325 114.877 652.612 114.604C651.925 114.329 650.672 114.173 648.852 114.135L644.6 114.099C642.058 114.056 640.021 113.765 638.488 113.226C636.955 112.688 635.837 111.961 635.134 111.046C634.456 110.103 634.078 109.045 634 107.875C633.891 106.252 634.305 104.861 635.243 103.702C636.181 102.543 637.536 101.624 639.308 100.944C641.106 100.262 643.202 99.8408 645.597 99.6801C648.045 99.5159 650.249 99.7021 652.209 100.239C654.17 100.775 655.761 101.591 656.984 102.685C658.233 103.777 658.989 105.089 659.252 106.622L652.468 107.077C652.324 106.525 651.983 106.027 651.445 105.582C650.932 105.108 650.2 104.743 649.247 104.487C648.294 104.23 647.073 104.151 645.583 104.251C643.907 104.364 642.63 104.65 641.752 105.11C640.872 105.543 640.458 106.145 640.51 106.917C640.546 107.449 640.855 107.869 641.437 108.178C642.017 108.459 643.07 108.616 644.595 108.647L650.132 108.717C652.594 108.765 654.551 109.048 656.002 109.566C657.452 110.057 658.488 110.762 659.111 111.682C659.76 112.601 660.127 113.686 660.211 114.936ZM677.363 121.563C674.676 121.743 672.235 121.412 670.04 120.571C667.87 119.701 666.113 118.402 664.768 116.675C663.449 114.946 662.709 112.884 662.549 110.49C662.39 108.122 662.823 106.008 663.847 104.149C664.898 102.287 666.402 100.797 668.358 99.6766C670.312 98.5299 672.58 97.8699 675.161 97.6968C677.795 97.5201 680.096 97.9537 682.063 98.9977C684.029 100.015 685.588 101.541 686.74 103.575C687.919 105.607 688.604 108.047 688.795 110.894L668.041 112.286L667.744 107.856L684.905 106.705L682.418 108.475C682.223 107.152 681.814 106.043 681.193 105.15C680.598 104.254 679.819 103.585 678.853 103.142C677.888 102.699 676.78 102.519 675.53 102.603C674.173 102.694 673.008 103.053 672.034 103.679C671.085 104.278 670.365 105.088 669.872 106.11C669.404 107.103 669.214 108.252 669.301 109.556C669.407 111.125 669.843 112.446 670.609 113.517C671.376 114.588 672.444 115.372 673.814 115.868C675.183 116.364 676.813 116.548 678.702 116.422C680.405 116.308 682.105 115.953 683.802 115.358C685.498 114.736 687.007 113.927 688.33 112.929L688.63 117.399C687.211 118.564 685.525 119.519 683.57 120.265C681.64 120.982 679.571 121.415 677.363 121.563Z" fill="#111013"/>
<path d="M733.58 113.181C732.651 113.243 731.945 112.828 731.518 112.317C731.091 111.807 730.492 111.972 730.453 111.386C730.407 110.703 730.954 109.032 731.25 108.326C731.547 107.62 731.785 107.217 732.114 106.264C732.443 105.311 732.957 104.621 732.911 103.204C731.646 104.121 730.632 104.528 730.052 105.4C729.468 106.223 728.493 106.921 728.19 107.529C727.887 108.138 727.823 108.213 727.259 108.594C726.884 108.864 726.817 109.626 726.328 109.659C725.448 109.718 723.798 108.706 723.201 107.864C722.705 107.064 722.862 106.47 723.067 105.868C723.273 105.267 723.483 105.181 723.998 104.804C724.705 104.364 725.242 103.718 725.927 103.672C726.611 103.626 727.997 103.631 728.92 103.471C729.839 103.263 730.474 103.051 731.846 102.273C730.474 101.581 729.823 101.553 728.786 101.476C727.798 101.395 726.459 100.63 725.726 100.679C724.992 100.728 724.337 101.066 723.73 100.813C723.173 100.556 722.949 100.451 722.666 99.8819C722.379 99.2641 722.144 98.6963 722.532 97.8863C723.011 96.9722 724.511 95.7491 725.391 95.69C725.734 95.6671 725.853 96.4163 726.456 96.6208C727.118 96.9684 727.136 96.9405 727.521 97.5517C727.951 98.1108 729.014 98.721 729.65 99.4133C730.286 100.106 731.45 100.464 732.777 101.208C732.637 99.8455 732.032 99.1822 731.579 98.2817C731.125 97.3811 730.835 97.013 730.447 96.3531C730.056 95.6444 729.291 94.0609 729.248 93.4268C729.209 92.8414 729.824 92.9249 730.179 92.3621C730.534 91.7992 731.179 91.2928 732.108 91.2304C733.037 91.1681 733.743 91.584 734.17 92.0943C734.597 92.6046 735.196 92.4398 735.235 93.0251C735.277 93.6593 734.731 95.3307 734.438 96.0853C734.141 96.7912 733.903 97.1947 733.574 98.1478C733.294 99.0976 732.783 99.8356 732.777 101.208C734.042 100.29 735.148 99.7795 735.637 99.0117C736.174 98.2406 736.197 97.5575 736.5 96.9492C736.849 96.2889 737.819 96.2505 738.429 95.8176C738.849 95.4954 738.871 94.7857 739.36 94.7529C740.191 94.6971 741.838 95.6602 742.487 96.5476C742.979 97.2986 742.823 97.8926 742.621 98.5431C742.416 99.1449 742.208 99.2791 741.69 99.6078C741.123 99.9399 740.586 100.586 739.761 100.739C738.982 100.841 737.785 100.725 736.768 100.94C735.751 101.155 733.975 101.493 732.844 102.206C734.057 102.712 735.865 102.858 736.902 102.936C737.939 103.013 739.057 102.693 739.895 102.735C740.73 102.728 741.4 103.342 741.958 103.599C742.519 103.904 742.739 103.961 743.022 104.53C743.355 105.095 743.59 105.663 743.156 106.525C742.726 107.436 741.226 108.659 740.297 108.722C739.808 108.754 739.64 108.008 739.232 107.791C738.671 107.485 738.598 107.419 738.168 106.86C737.786 106.297 736.726 105.736 736.038 104.998C735.396 104.208 734.336 103.941 732.911 103.204C733.11 104.709 733.705 105.226 734.11 106.13C734.563 107.03 734.923 108.445 735.308 109.056C735.693 109.667 736.33 109.353 736.373 109.987C736.415 110.621 735.864 111.487 735.509 112.049C735.154 112.612 734.51 113.119 733.58 113.181Z" fill="#111013"/>
<path d="M781.241 96.6738L802.872 95.2226L803.261 101.01L781.629 102.461L781.241 96.6738ZM802.699 82.4856L803.09 88.3125L780.86 89.8039L784.06 86.1014L785.91 113.679L779.125 114.135L777.117 84.2019L802.699 82.4856ZM805.703 89.5404L812.448 89.0879L814.354 97.1785L815.328 111.706L808.663 112.153L807.641 96.9072L805.703 89.5404ZM824.844 88.0158L825.229 93.7628C824.527 93.6496 823.827 93.5763 823.13 93.5429C822.433 93.5095 821.778 93.5133 821.166 93.5543C819.836 93.6436 818.658 94.0033 817.631 94.6334C816.604 95.2636 815.824 96.1845 815.29 97.3963C814.757 98.608 814.55 100.105 814.67 101.888L813.16 100.305C813.211 98.6716 813.402 97.1354 813.733 95.6967C814.062 94.2314 814.564 92.9416 815.238 91.8273C815.936 90.6847 816.823 89.7699 817.9 89.083C818.974 88.3694 820.283 87.9609 821.827 87.8574C822.332 87.8235 822.84 87.8295 823.351 87.8754C823.887 87.8929 824.384 87.9397 824.844 88.0158ZM849.598 109.407L848.083 101.17L848.958 98.0642L847.679 95.1432L848.075 86.6978L854.979 86.2346L854.425 97.6974L856.503 108.944L849.598 109.407ZM850.594 97.9544C850.329 100.378 849.685 102.532 848.662 104.418C847.664 106.276 846.334 107.755 844.67 108.855C843.033 109.954 841.151 110.575 839.022 110.718C836.814 110.866 834.825 110.505 833.056 109.635C831.286 108.738 829.862 107.43 828.784 105.712C827.732 103.965 827.126 101.908 826.967 99.5395C826.806 97.1449 827.132 95.025 827.943 93.1799C828.78 91.3063 830.017 89.8202 831.653 88.7215C833.288 87.5962 835.21 86.9595 837.418 86.8114C839.547 86.6686 841.496 87.0323 843.265 87.9025C845.06 88.7709 846.591 90.0714 847.856 91.8039C849.12 93.5098 850.032 95.56 850.594 97.9544ZM833.712 99.087C833.801 100.417 834.146 101.57 834.746 102.546C835.372 103.519 836.184 104.266 837.181 104.788C838.176 105.282 839.299 105.487 840.55 105.403C841.8 105.32 842.952 104.962 844.006 104.33C845.084 103.669 846.015 102.805 846.799 101.737C847.582 100.669 848.169 99.4535 848.558 98.091C847.99 96.7928 847.247 95.6667 846.327 94.7128C845.406 93.7322 844.368 93.0001 843.213 92.5163C842.083 92.0041 840.893 91.79 839.642 91.8739C838.392 91.9578 837.307 92.3245 836.389 92.9741C835.468 93.5971 834.763 94.4462 834.274 95.5214C833.81 96.5681 833.623 97.7567 833.712 99.087ZM858.358 86.0079L865.023 85.5608L867.041 94.125L867.983 108.173L861.318 108.621L860.309 93.5743L858.358 86.0079ZM874.522 84.3222C876.544 84.1866 878.303 84.5096 879.798 85.2912C881.292 86.0462 882.465 87.197 883.317 88.7434C884.196 90.2881 884.709 92.1646 884.857 94.3729L885.704 106.985L879.039 107.432L878.259 95.8178C878.122 93.7691 877.566 92.2562 876.592 91.2793C875.642 90.2739 874.316 89.8283 872.613 89.9426C871.416 90.0229 870.398 90.3852 869.559 91.0294C868.719 91.6471 868.093 92.4775 867.682 93.5207C867.297 94.5621 867.153 95.7879 867.247 97.198L864.974 96.1879C865.08 93.7754 865.556 91.7123 866.403 89.9984C867.25 88.2845 868.363 86.9403 869.741 85.9659C871.145 84.9897 872.739 84.4418 874.522 84.3222ZM892.202 83.1361C894.224 83.0005 895.983 83.3235 897.479 84.1051C898.999 84.8583 900.185 86.0082 901.037 87.5546C901.916 89.0993 902.43 90.9758 902.578 93.1841L903.424 105.796L896.759 106.243L895.98 94.629C895.842 92.5803 895.286 91.0675 894.312 90.0905C893.363 89.0851 892.036 88.6395 890.334 88.7538C889.136 88.8341 888.118 89.1964 887.28 89.8406C886.439 90.4583 885.813 91.2887 885.402 92.3319C885.018 93.3733 884.873 94.5991 884.967 96.0093L882.695 94.9991C882.8 92.5866 883.276 90.5235 884.123 88.8096C884.971 87.0957 886.083 85.7516 887.461 84.7771C888.866 83.8009 890.446 83.2539 892.202 83.1361ZM920.97 105.22C918.283 105.4 915.842 105.07 913.647 104.228C911.478 103.358 909.72 102.059 908.375 100.332C907.056 98.6032 906.316 96.5414 906.156 94.1468C905.997 91.7788 906.43 89.6651 907.454 87.8057C908.505 85.9445 910.009 84.4538 911.965 83.3337C913.919 82.187 916.187 81.5271 918.768 81.3539C921.402 81.1772 923.703 81.6108 925.67 82.6548C927.636 83.6722 929.195 85.1979 930.347 87.232C931.526 89.2643 932.211 91.704 932.402 94.5509L911.648 95.9432L911.351 91.5131L928.513 90.3618L926.025 92.1323C925.83 90.8091 925.421 89.7006 924.8 88.8068C924.206 87.9113 923.426 87.242 922.46 86.7989C921.495 86.3559 920.387 86.1763 919.137 86.2602C917.78 86.3512 916.615 86.71 915.641 87.3366C914.692 87.9348 913.972 88.7448 913.479 89.7668C913.011 90.7603 912.821 91.909 912.908 93.2127C913.014 94.7825 913.45 96.103 914.216 97.174C914.983 98.2451 916.051 99.0287 917.421 99.5248C918.791 100.021 920.42 100.206 922.309 100.079C924.012 99.9646 925.712 99.61 927.409 99.0151C929.105 98.3935 930.614 97.584 931.937 96.5866L932.237 101.057C930.818 102.221 929.132 103.176 927.177 103.922C925.248 104.639 923.179 105.072 920.97 105.22ZM965.956 97.9525L963.761 98.0998L969.585 78.5461L976.25 78.0989L968.994 101.397L962.169 101.855L953.271 82.7675L955.666 82.6069L949.278 102.72L942.453 103.177L932.149 81.0575L938.894 80.605L947.318 99.2029L945.043 99.3555L951.027 79.7911L957.532 79.3547L965.956 97.9525ZM992.728 100.406C989.907 100.595 987.4 100.269 985.205 99.4274C983.009 98.5591 981.252 97.2738 979.935 95.5715C978.617 93.8425 977.878 91.794 977.719 89.426C977.558 87.0314 978.017 84.9026 979.095 83.0396C980.171 81.15 981.74 79.6416 983.802 78.5144C985.863 77.3605 988.304 76.689 991.124 76.4998C993.944 76.3106 996.453 76.6501 998.649 77.5184C1000.84 78.36 1002.59 79.6462 1003.88 81.3769C1005.2 83.0793 1005.93 85.1278 1006.1 87.5224C1006.25 89.8904 1005.8 92.0192 1004.72 93.9088C1003.67 95.77 1002.11 97.2775 1000.05 98.4314C997.989 99.5586 995.548 100.217 992.728 100.406ZM992.388 95.3374C993.931 95.2339 995.229 94.8662 996.282 94.2343C997.362 93.6005 998.161 92.7585 998.679 91.7082C999.221 90.6295 999.445 89.385 999.35 87.9749C999.254 86.5381 998.866 85.3347 998.186 84.3647C997.531 83.3663 996.626 82.6252 995.471 82.1414C994.343 81.6559 993.007 81.4649 991.464 81.5684C989.947 81.6701 988.649 82.0379 987.569 82.6716C986.489 83.3053 985.678 84.1615 985.135 85.2402C984.618 86.2905 984.407 87.5341 984.504 88.9709C984.598 90.381 984.973 91.5853 985.628 92.5837C986.308 93.5537 987.225 94.2806 988.38 94.7644C989.535 95.2482 990.871 95.4392 992.388 95.3374ZM1008.06 75.9649L1014.81 75.5124L1016.71 83.603L1017.69 98.1303L1011.02 98.5775L1010 83.3317L1008.06 75.9649ZM1027.2 74.4402L1027.59 80.1873C1026.88 80.0741 1026.18 80.0008 1025.49 79.9674C1024.79 79.934 1024.14 79.9378 1023.52 79.9788C1022.19 80.0681 1021.02 80.4278 1019.99 81.0579C1018.96 81.6881 1018.18 82.609 1017.65 83.8208C1017.11 85.0325 1016.91 86.5297 1017.03 88.3124L1015.52 86.7299C1015.57 85.0961 1015.76 83.5599 1016.09 82.1212C1016.42 80.6559 1016.92 79.3661 1017.6 78.2518C1018.29 77.1092 1019.18 76.1944 1020.26 75.5075C1021.33 74.7939 1022.64 74.3854 1024.18 74.2819C1024.69 74.2479 1025.2 74.2539 1025.71 74.2999C1026.24 74.3174 1026.74 74.3642 1027.2 74.4402ZM1038.12 91.227L1036.2 90.6744L1048.58 73.2465L1055.84 72.7592L1037.89 96.7748L1031.83 97.1818L1029.76 66.4508L1036.43 66.0037L1038.12 91.227ZM1042.89 85.2543L1047.55 81.1335L1058.01 95.4254L1050.38 95.9368L1042.89 85.2543Z" fill="#111013"/>
<path d="M1100.32 88.5779C1099.39 88.6403 1098.68 88.2244 1098.25 87.7141C1097.83 87.2037 1097.23 87.3686 1097.19 86.7832C1097.14 86.1003 1097.69 84.4289 1097.99 83.723C1098.28 83.0172 1098.52 82.6136 1098.85 81.6606C1099.18 80.7075 1099.69 80.0183 1099.65 78.6004C1098.38 79.5182 1097.37 79.9248 1096.79 80.7967C1096.2 81.6198 1095.23 82.3178 1094.93 82.9261C1094.62 83.5344 1094.56 83.6099 1094 83.9908C1093.62 84.2609 1093.55 85.0227 1093.06 85.0555C1092.18 85.1145 1090.53 84.1027 1089.94 83.2608C1089.44 82.461 1089.6 81.867 1089.8 81.2652C1090.01 80.6635 1090.22 80.5781 1090.73 80.2006C1091.44 79.7611 1091.98 79.1149 1092.66 79.0689C1093.35 79.023 1094.73 79.028 1095.66 78.8681C1096.58 78.6594 1097.21 78.4476 1098.58 77.6696C1097.21 76.9777 1096.56 76.95 1095.52 76.8726C1094.53 76.7919 1093.2 76.0264 1092.46 76.0757C1091.73 76.1249 1091.07 76.4628 1090.47 76.2095C1089.91 75.9529 1089.69 75.8477 1089.4 75.2787C1089.12 74.661 1088.88 74.0932 1089.27 73.2832C1089.75 72.3691 1091.25 71.1459 1092.13 71.0869C1092.47 71.0639 1092.59 71.8132 1093.19 72.0177C1093.85 72.3653 1093.87 72.3373 1094.26 72.9485C1094.69 73.5076 1095.75 74.1178 1096.39 74.8102C1097.02 75.5025 1098.19 75.8609 1099.51 76.6049C1099.37 75.2423 1098.77 74.5791 1098.32 73.6785C1097.86 72.778 1097.57 72.4099 1097.18 71.7499C1096.79 71.0412 1096.03 69.4577 1095.98 68.8236C1095.95 68.2383 1096.56 68.3217 1096.92 67.7589C1097.27 67.1961 1097.92 66.6896 1098.84 66.6273C1099.77 66.5649 1100.48 66.9808 1100.91 67.4912C1101.33 68.0015 1101.93 67.8366 1101.97 68.422C1102.01 69.0561 1101.47 70.7275 1101.17 71.4822C1100.88 72.1881 1100.64 72.5916 1100.31 73.5446C1100.03 74.4944 1099.52 75.2325 1099.51 76.6049C1100.78 75.687 1101.88 75.1763 1102.37 74.4085C1102.91 73.6375 1102.93 72.9544 1103.24 72.3461C1103.59 71.6857 1104.56 71.6473 1105.17 71.2145C1105.59 70.8923 1105.61 70.1826 1106.1 70.1498C1106.93 70.094 1108.57 71.057 1109.22 71.9445C1109.72 72.6954 1109.56 73.2894 1109.36 73.94C1109.15 74.5417 1108.94 74.6759 1108.43 75.0047C1107.86 75.3367 1107.32 75.983 1106.5 76.1363C1105.72 76.2376 1104.52 76.1219 1103.5 76.3371C1102.49 76.5523 1100.71 76.8897 1099.58 77.6026C1100.79 78.1092 1102.6 78.2552 1103.64 78.3326C1104.68 78.4101 1105.79 78.09 1106.63 78.1318C1107.47 78.1248 1108.14 78.7391 1108.69 78.9957C1109.26 79.3011 1109.48 79.3576 1109.76 79.9265C1110.09 80.4922 1110.33 81.06 1109.89 81.922C1109.46 82.8329 1107.96 84.056 1107.03 84.1184C1106.54 84.1512 1106.38 83.4052 1105.97 83.1875C1105.41 82.8822 1105.33 82.8158 1104.9 82.2567C1104.52 81.6943 1103.46 81.1329 1102.77 80.3951C1102.13 79.6052 1101.07 79.3378 1099.65 78.6004C1099.85 80.106 1100.44 80.6229 1100.85 81.5267C1101.3 82.4273 1101.66 83.8419 1102.04 84.453C1102.43 85.0642 1103.07 84.7497 1103.11 85.3839C1103.15 86.018 1102.6 86.8835 1102.25 87.4463C1101.89 88.0091 1101.25 88.5156 1100.32 88.5779Z" fill="#111013"/>
<path d="M1177.45 75.1847C1177.33 77.732 1176.59 80.0268 1175.23 82.069C1173.89 84.0829 1172.05 85.7032 1169.7 86.9299C1167.38 88.1548 1164.67 88.8708 1161.59 89.0779C1158.18 89.3063 1155.14 88.8553 1152.48 87.7247C1149.83 86.5923 1147.72 84.9169 1146.12 82.6985C1144.53 80.4535 1143.63 77.7745 1143.42 74.6615C1143.21 71.5485 1143.75 68.7864 1145.03 66.3752C1146.31 63.9374 1148.18 61.981 1150.65 60.5059C1153.14 59.029 1156.09 58.1763 1159.5 57.9478C1162.58 57.7408 1165.36 58.0891 1167.83 58.9927C1170.32 59.8945 1172.36 61.2542 1173.95 63.0717C1175.57 64.8875 1176.61 67.0626 1177.08 69.5973L1170.25 70.0551C1169.89 68.6628 1169.24 67.4906 1168.29 66.5384C1167.35 65.5596 1166.16 64.8373 1164.74 64.3714C1163.32 63.9055 1161.69 63.7341 1159.85 63.8572C1157.75 63.9982 1155.96 64.5196 1154.47 65.4214C1153 66.2947 1151.91 67.4907 1151.18 69.0094C1150.45 70.5015 1150.15 72.232 1150.29 74.2009C1150.42 76.1699 1150.94 77.8583 1151.87 79.2664C1152.79 80.6478 1154.03 81.6868 1155.6 82.3832C1157.2 83.0513 1159.05 83.3148 1161.15 83.1738C1162.99 83.0507 1164.58 82.6766 1165.93 82.0516C1167.27 81.4001 1168.35 80.5393 1169.16 79.4693C1169.97 78.3728 1170.46 77.0972 1170.63 75.6426L1177.45 75.1847ZM1222.71 54.3085L1224.72 84.2412L1218.25 84.6749L1216.4 57.0171L1218.12 57.0217L1207.2 85.4166L1200.21 85.8852L1185.6 59.2837L1187.27 59.0116L1189.12 86.6295L1182.69 87.0606L1180.68 57.1278L1191.1 56.429L1204.94 82.2805L1202.03 82.476L1212.29 55.0073L1222.71 54.3085ZM1228.57 74.1605L1235.44 73.7C1235.67 74.7003 1236.17 75.5622 1236.94 76.2856C1237.73 76.9806 1238.75 77.4999 1240.01 77.8435C1241.28 78.1587 1242.73 78.2619 1244.36 78.153C1246.73 77.9941 1248.57 77.5366 1249.88 76.7804C1251.21 75.9958 1251.84 74.9915 1251.76 73.7676C1251.7 72.8098 1251.25 72.1049 1250.42 71.6529C1249.61 71.1725 1248.13 70.884 1245.99 70.7873L1239.92 70.5132C1236 70.348 1233.12 69.6326 1231.27 68.3669C1229.45 67.0727 1228.45 65.1751 1228.28 62.6741C1228.15 60.7052 1228.61 58.9906 1229.66 57.5303C1230.74 56.0682 1232.31 54.9074 1234.36 54.048C1236.41 53.162 1238.86 52.6235 1241.71 52.4325C1244.48 52.2469 1246.97 52.4942 1249.18 53.1744C1251.38 53.828 1253.18 54.8437 1254.55 56.2214C1255.93 57.5725 1256.73 59.2156 1256.97 61.1508L1250.1 61.6113C1249.91 60.7422 1249.46 60.0107 1248.75 59.4167C1248.07 58.7944 1247.14 58.3487 1245.98 58.0795C1244.81 57.7838 1243.45 57.6877 1241.91 57.7912C1239.75 57.9358 1238.06 58.3702 1236.82 59.0945C1235.59 59.8187 1235.01 60.7662 1235.09 61.9369C1235.15 62.8415 1235.57 63.5216 1236.35 63.9772C1237.15 64.4043 1238.52 64.6734 1240.45 64.7843L1246.77 65.1222C1249.56 65.2293 1251.78 65.5609 1253.45 66.1172C1255.14 66.6451 1256.37 67.4313 1257.14 68.4758C1257.93 69.5185 1258.38 70.8779 1258.49 72.5542C1258.63 74.5497 1258.13 76.3468 1257.01 77.9455C1255.91 79.5158 1254.3 80.7865 1252.18 81.7577C1250.05 82.7289 1247.52 83.3127 1244.6 83.509C1241.62 83.7089 1238.97 83.459 1236.65 82.7593C1234.33 82.033 1232.46 80.942 1231.06 79.4863C1229.65 78.0039 1228.82 76.2287 1228.57 74.1605Z" fill="#111013"/>
<path d="M1303.42 74.9523C1302.49 75.0147 1301.79 74.5988 1301.36 74.0884C1300.93 73.5781 1300.33 73.743 1300.29 73.1576C1300.25 72.4747 1300.79 70.8033 1301.09 70.0974C1301.39 69.3915 1301.63 68.988 1301.96 68.035C1302.28 67.0819 1302.8 66.3926 1302.75 64.9748C1301.49 65.8926 1300.47 66.2992 1299.89 67.1711C1299.31 67.9942 1298.33 68.6922 1298.03 69.3005C1297.73 69.9088 1297.66 69.9843 1297.1 70.3652C1296.73 70.6353 1296.66 71.3971 1296.17 71.4299C1295.29 71.4889 1293.64 70.4771 1293.04 69.6352C1292.55 68.8354 1292.7 68.2414 1292.91 67.6396C1293.11 67.0379 1293.32 66.9525 1293.84 66.5749C1294.55 66.1355 1295.08 65.4892 1295.77 65.4433C1296.45 65.3974 1297.84 65.4024 1298.76 65.2425C1299.68 65.0338 1300.31 64.822 1301.69 64.0439C1300.31 63.3521 1299.66 63.3244 1298.63 63.247C1297.64 63.1663 1296.3 62.4008 1295.57 62.45C1294.83 62.4993 1294.18 62.8372 1293.57 62.5839C1293.01 62.3273 1292.79 62.222 1292.51 61.6531C1292.22 61.0354 1291.99 60.4676 1292.37 59.6576C1292.85 58.7435 1294.35 57.5203 1295.23 57.4613C1295.57 57.4383 1295.69 58.1876 1296.3 58.3921C1296.96 58.7397 1296.98 58.7117 1297.36 59.3229C1297.79 59.882 1298.86 60.4922 1299.49 61.1845C1300.13 61.8769 1301.29 62.2353 1302.62 62.9792C1302.48 61.6167 1301.87 60.9535 1301.42 60.0529C1300.97 59.1524 1300.68 58.7843 1300.29 58.1243C1299.9 57.4156 1299.13 55.8321 1299.09 55.198C1299.05 54.6126 1299.67 54.6961 1300.02 54.1333C1300.38 53.5705 1301.02 53.064 1301.95 53.0017C1302.88 52.9393 1303.58 53.3552 1304.01 53.8656C1304.44 54.3759 1305.04 54.211 1305.08 54.7964C1305.12 55.4305 1304.57 57.1019 1304.28 57.8566C1303.98 58.5625 1303.74 58.966 1303.42 59.919C1303.13 60.8688 1302.62 61.6069 1302.62 62.9792C1303.88 62.0614 1304.99 61.5507 1305.48 60.7829C1306.02 60.0119 1306.04 59.3288 1306.34 58.7205C1306.69 58.0601 1307.66 58.0217 1308.27 57.5888C1308.69 57.2666 1308.71 56.557 1309.2 56.5241C1310.03 56.4684 1311.68 57.4314 1312.33 58.3189C1312.82 59.0698 1312.66 59.6638 1312.46 60.3144C1312.26 60.9161 1312.05 61.0503 1311.53 61.3791C1310.96 61.7111 1310.43 62.3574 1309.6 62.5107C1308.82 62.612 1307.63 62.4963 1306.61 62.7115C1305.59 62.9267 1303.82 63.2641 1302.69 63.977C1303.9 64.4836 1305.71 64.6296 1306.74 64.707C1307.78 64.7845 1308.9 64.4644 1309.74 64.5062C1310.57 64.4992 1311.24 65.1135 1311.8 65.3701C1312.36 65.6755 1312.58 65.732 1312.86 66.3009C1313.2 66.8666 1313.43 67.4344 1313 68.2964C1312.57 69.2073 1311.07 70.4304 1310.14 70.4928C1309.65 70.5256 1309.48 69.7796 1309.07 69.5619C1308.51 69.2566 1308.44 69.1902 1308.01 68.6311C1307.63 68.0687 1306.57 67.5073 1305.88 66.7695C1305.24 65.9796 1304.18 65.7121 1302.75 64.9748C1302.95 66.4804 1303.55 66.9973 1303.95 67.9011C1304.4 68.8017 1304.76 70.2163 1305.15 70.8274C1305.53 71.4386 1306.17 71.1241 1306.21 71.7583C1306.26 72.3924 1305.71 73.2579 1305.35 73.8207C1304.99 74.3835 1304.35 74.89 1303.42 74.9523Z" fill="#111013"/>
<path d="M1353.45 69.2707L1353.08 63.7631L1373.84 62.3708L1374.21 67.8784L1353.45 69.2707ZM1366.75 44.6451L1382.77 73.638L1375.55 74.1227L1361.47 47.7657L1363.71 47.6158L1353.28 75.6167L1346.05 76.1013L1358.05 45.2288L1366.75 44.6451ZM1400.31 42.3941C1402.68 42.2352 1404.75 42.5102 1406.54 43.219C1408.32 43.9278 1409.72 44.9968 1410.72 46.4261C1411.75 47.8536 1412.33 49.5518 1412.47 51.5207C1412.6 53.4896 1412.25 55.2503 1411.42 56.8028C1410.61 58.3268 1409.37 59.5726 1407.7 60.54C1406.02 61.4809 1404 62.0307 1401.64 62.1896L1388.42 63.0758L1388.05 57.4884L1400.9 56.6262C1402.47 56.5209 1403.67 56.053 1404.5 55.2225C1405.35 54.3902 1405.73 53.3089 1405.64 51.9786C1405.55 50.6216 1405.03 49.601 1404.07 48.9167C1403.14 48.204 1401.89 47.9003 1400.32 48.0056L1388.07 48.8276L1390.93 45.3887L1392.78 72.9667L1385.99 73.4219L1383.98 43.4891L1400.31 42.3941ZM1415.75 41.3582L1422.53 40.903L1424.54 70.8357L1417.76 71.2909L1415.75 41.3582ZM1428.4 60.7545L1435.27 60.294C1435.5 61.2943 1436 62.1562 1436.77 62.8796C1437.56 63.5746 1438.58 64.0939 1439.84 64.4375C1441.11 64.7527 1442.56 64.8559 1444.19 64.747C1446.56 64.5882 1448.4 64.1306 1449.71 63.3744C1451.05 62.5898 1451.67 61.5856 1451.59 60.3617C1451.53 59.4038 1451.08 58.6989 1450.25 58.2469C1449.44 57.7665 1447.96 57.478 1445.82 57.3814L1439.75 57.1072C1435.83 56.9421 1432.95 56.2266 1431.1 54.9609C1429.28 53.6668 1428.28 51.7692 1428.12 49.2681C1427.98 47.2992 1428.44 45.5846 1429.49 44.1243C1430.57 42.6622 1432.14 41.5014 1434.19 40.6421C1436.24 39.756 1438.69 39.2175 1441.54 39.0266C1444.31 38.8409 1446.8 39.0882 1449.01 39.7684C1451.22 40.4221 1453.01 41.4377 1454.38 42.8154C1455.76 44.1665 1456.56 45.8097 1456.8 47.7448L1449.93 48.2053C1449.74 47.3362 1449.29 46.6047 1448.58 46.0108C1447.9 45.3884 1446.97 44.9427 1445.81 44.6736C1444.64 44.3778 1443.28 44.2817 1441.74 44.3852C1439.58 44.5298 1437.89 44.9642 1436.65 45.6885C1435.42 46.4127 1434.84 47.3602 1434.92 48.5309C1434.98 49.4355 1435.4 50.1156 1436.18 50.5712C1436.98 50.9983 1438.35 51.2674 1440.28 51.3783L1446.6 51.7163C1449.39 51.8233 1451.61 52.155 1453.28 52.7113C1454.97 53.2392 1456.2 54.0253 1456.97 55.0698C1457.76 56.1125 1458.21 57.472 1458.32 59.1482C1458.46 61.1437 1457.96 62.9408 1456.84 64.5395C1455.74 66.1098 1454.13 67.3806 1452.01 68.3517C1449.88 69.3229 1447.35 69.9067 1444.43 70.103C1441.45 70.303 1438.8 70.0531 1436.48 69.3534C1434.16 68.6271 1432.29 67.536 1430.89 66.0803C1429.48 64.598 1428.65 62.8227 1428.4 60.7545Z" fill="#111013"/>
</g>
<defs>
<clipPath id="clip0_71_147">
<rect width="1440" height="200" fill="white"/>
</clipPath>
</defs>
</svg>
